<?xml version="1.0" encoding="utf-8"?>
<!-- Generator: Adobe Illustrator 26.0.2, SVG Export Plug-In . SVG Version: 6.00 Build 0)  -->
<svg version="1.1" xmlns="http://www.w3.org/2000/svg" xmlns:xlink="http://www.w3.org/1999/xlink" x="0px" y="0px"
	 viewBox="0 0 344 67" style="enable-background:new 0 0 344 67;" xml:space="preserve">
<style type="text/css">
	.st0{fill:#8C9396;}
</style>
<g id="Livello_1">
	<g>
		<path class="st0" d="M19.2,0.1h12.3c2.9,0,5.2,0.7,6.7,2.1c1.5,1.4,2.3,3.4,2.3,6.1c0,1.6-0.3,2.9-0.9,4c-0.6,1.1-1.5,1.9-2.6,2.7
			c1.2,0.2,2.2,0.6,3,1c0.8,0.5,1.5,1,2,1.7c0.5,0.7,0.9,1.4,1.1,2.3c0.2,0.8,0.3,1.7,0.3,2.7c0,1.5-0.3,2.8-0.8,4
			c-0.5,1.2-1.3,2.1-2.2,2.9c-0.9,0.8-2.1,1.4-3.4,1.8c-1.4,0.4-2.9,0.6-4.6,0.6H19.2V0.1z M27.5,12.6H29c2.6,0,3.9-1,3.9-3.1
			c0-2.1-1.3-3.1-3.9-3.1h-1.5V12.6z M27.5,25.6h1.8c2.1,0,3.6-0.3,4.5-0.8c0.9-0.5,1.4-1.4,1.4-2.6c0-1.2-0.5-2-1.4-2.6
			c-0.9-0.5-2.4-0.8-4.5-0.8h-1.8V25.6z"/>
		<path class="st0" d="M87.3,0.1V32H79V0.1H87.3z"/>
		<path class="st0" d="M132.8,0.1H145c2.2,0,4.2,0.4,6.1,1.3c1.9,0.9,3.6,2,5,3.5c1.4,1.5,2.5,3.1,3.4,5.1c0.8,1.9,1.2,3.9,1.2,6.1
			c0,2.1-0.4,4.1-1.2,6c-0.8,1.9-1.9,3.6-3.3,5.1s-3.1,2.6-5,3.5c-1.9,0.9-3.9,1.3-6.1,1.3h-12.2V0.1z M141,25h1.9
			c1.4,0,2.7-0.2,3.8-0.7c1.1-0.4,2.1-1.1,2.8-1.9c0.8-0.8,1.4-1.7,1.8-2.8c0.4-1.1,0.6-2.3,0.6-3.6c0-1.3-0.2-2.4-0.6-3.5
			c-0.4-1.1-1-2-1.8-2.8c-0.8-0.8-1.7-1.4-2.9-1.9c-1.1-0.4-2.4-0.7-3.8-0.7H141V25z"/>
		<path class="st0" d="M203.6,0.1V25h9.9v7h-18.2V0.1H203.6z"/>
		<path class="st0" d="M221.8,32l5.4-31.8h8.2l6.4,17l6.3-17h8.2l5.4,31.8h-8.2l-2.7-18.3L243.2,32h-3.3l-7.1-18.3L230,32H221.8z"/>
		<path class="st0" d="M324.8,32h-10.3l-7.9-12.2V32h-8.3V0.1h12.9c1.8,0,3.3,0.3,4.6,0.8c1.3,0.5,2.4,1.2,3.3,2.1
			c0.9,0.9,1.5,1.9,1.9,3.1c0.4,1.2,0.7,2.4,0.7,3.8c0,2.4-0.6,4.4-1.8,5.9c-1.2,1.5-2.9,2.5-5.2,3.1L324.8,32z M306.6,14.4h1.6
			c1.6,0,2.9-0.3,3.8-1c0.9-0.7,1.3-1.6,1.3-2.9c0-1.3-0.4-2.2-1.3-2.9c-0.9-0.7-2.1-1-3.8-1h-1.6V14.4z"/>
		<g>
			<path class="st0" d="M76.5,31.3c-0.8,0.4-1.7,0.8-2.8,1.1c-1.1,0.3-2.2,0.5-3.4,0.5c-2.2,0-3.8-0.4-4.8-1.1
				c-1-0.8-1.7-1.9-2.1-3.3h-0.2c-0.6,0.7-1.2,1.3-1.7,1.8c-0.6,0.5-1.2,0.9-1.8,1.3c-0.8,0.5-1.6,0.8-2.4,1
				C56.5,32.9,55.4,33,54,33c-2.1,0-3.8-0.7-5.3-2.1c-1.5-1.4-2.2-3.3-2.2-5.7c0-1.4,0.2-2.5,0.5-3.5c0.3-1,0.8-1.8,1.4-2.5
				c0.5-0.7,1.2-1.2,1.9-1.7c0.7-0.4,1.5-0.8,2.3-1.2c1.6-0.7,3.5-1.4,5.8-2.1c2.2-0.7,3.9-1.4,4.9-2v-3c0-0.5,0-1.2-0.1-2.1
				c-0.1-0.9-0.2-1.6-0.5-2.2c-0.3-0.7-0.6-1.2-1.2-1.7c-0.5-0.5-1.2-0.7-2.1-0.7c-0.8,0-1.4,0.1-2,0.4c-0.5,0.3-0.9,0.5-1.3,0.8
				c0.1,0.4,0.2,1.1,0.5,1.9C56.9,6.5,57,7.3,57,8.1c0,0.4-0.1,0.8-0.2,1.3c-0.2,0.5-0.4,1-0.7,1.3c-0.4,0.4-0.9,0.7-1.4,1
				c-0.5,0.2-1.3,0.3-2.3,0.3c-1.5,0-2.6-0.4-3.4-1.3c-0.8-0.8-1.2-1.9-1.2-3.3c0-1.2,0.4-2.2,1.2-3.1c0.8-0.9,1.8-1.7,2.9-2.3
				c1.1-0.6,2.4-1.1,3.9-1.5C57.2,0.2,58.6,0,59.8,0c1.7,0,3.3,0.1,4.7,0.4c1.4,0.2,2.7,0.7,3.9,1.5c1.1,0.7,2,1.8,2.6,3.2
				c0.6,1.4,1,3.2,1,5.4c0,2.4,0,5.2-0.1,8.4c-0.1,3.2-0.1,5.4-0.1,6.4c0,0.9,0.1,1.7,0.4,2.2c0.2,0.5,0.6,1,1.1,1.2
				c0.3,0.2,0.8,0.3,1.4,0.3c0.6,0,1.2,0,1.8,0V31.3z M63.2,15c-1,0.4-2,0.9-3,1.4c-1,0.5-1.8,1.1-2.4,1.6c-0.7,0.6-1.2,1.3-1.6,2.2
				c-0.4,0.9-0.6,2-0.6,3.2c0,1.6,0.3,2.8,1,3.5c0.6,0.7,1.4,1.1,2.3,1.1c1,0,1.8-0.2,2.4-0.7c0.6-0.5,1.2-1.1,1.7-1.7L63.2,15z"/>
			<path class="st0" d="M121.3,31.3c-0.8,0.4-1.7,0.8-2.8,1.1c-1.1,0.3-2.2,0.5-3.4,0.5c-2.2,0-3.8-0.4-4.8-1.1
				c-1-0.8-1.7-1.9-2.1-3.3h-0.2c-0.6,0.7-1.2,1.3-1.7,1.8c-0.6,0.5-1.2,0.9-1.8,1.3c-0.8,0.5-1.6,0.8-2.4,1
				c-0.8,0.2-1.9,0.3-3.2,0.3c-2.1,0-3.8-0.7-5.3-2.1c-1.5-1.4-2.2-3.3-2.2-5.7c0-1.4,0.2-2.5,0.5-3.5c0.3-1,0.8-1.8,1.4-2.5
				c0.5-0.7,1.2-1.2,1.9-1.7c0.7-0.4,1.5-0.8,2.3-1.2c1.6-0.7,3.5-1.4,5.8-2.1c2.2-0.7,3.9-1.4,4.9-2v-3c0-0.5,0-1.2-0.1-2.1
				c-0.1-0.9-0.2-1.6-0.5-2.2c-0.3-0.7-0.6-1.2-1.2-1.7c-0.5-0.5-1.2-0.7-2.1-0.7c-0.8,0-1.4,0.1-2,0.4c-0.5,0.3-0.9,0.5-1.3,0.8
				c0.1,0.4,0.2,1.1,0.5,1.9c0.2,0.9,0.4,1.7,0.4,2.5c0,0.4-0.1,0.8-0.2,1.3c-0.2,0.5-0.4,1-0.7,1.3c-0.4,0.4-0.9,0.7-1.4,1
				C99,11.9,98.2,12,97.2,12c-1.5,0-2.6-0.4-3.4-1.3c-0.8-0.8-1.2-1.9-1.2-3.3c0-1.2,0.4-2.2,1.2-3.1c0.8-0.9,1.8-1.7,2.9-2.3
				c1.1-0.6,2.4-1.1,3.9-1.5c1.5-0.3,2.8-0.5,4.1-0.5c1.7,0,3.3,0.1,4.7,0.4c1.4,0.2,2.7,0.7,3.9,1.5c1.1,0.7,2,1.8,2.6,3.2
				c0.6,1.4,1,3.2,1,5.4c0,2.4,0,5.2-0.1,8.4c-0.1,3.2-0.1,5.4-0.1,6.4c0,0.9,0.1,1.7,0.4,2.2c0.2,0.5,0.6,1,1.1,1.2
				c0.3,0.2,0.8,0.3,1.4,0.3c0.6,0,1.2,0,1.8,0V31.3z M108.1,15c-1,0.4-2,0.9-3,1.4c-1,0.5-1.8,1.1-2.4,1.6
				c-0.7,0.6-1.2,1.3-1.6,2.2c-0.4,0.9-0.6,2-0.6,3.2c0,1.6,0.3,2.8,1,3.5c0.6,0.7,1.4,1.1,2.3,1.1c1,0,1.8-0.2,2.4-0.7
				c0.6-0.5,1.2-1.1,1.7-1.7L108.1,15z"/>
			<path class="st0" d="M294.7,31.3c-0.8,0.4-1.7,0.8-2.8,1.1c-1.1,0.3-2.2,0.5-3.4,0.5c-2.2,0-3.8-0.4-4.8-1.1
				c-1-0.8-1.7-1.9-2.1-3.3h-0.2c-0.6,0.7-1.2,1.3-1.7,1.8c-0.6,0.5-1.2,0.9-1.8,1.3c-0.8,0.5-1.6,0.8-2.4,1
				c-0.8,0.2-1.9,0.3-3.2,0.3c-2.1,0-3.8-0.7-5.3-2.1c-1.5-1.4-2.2-3.3-2.2-5.7c0-1.4,0.2-2.5,0.5-3.5c0.3-1,0.8-1.8,1.4-2.5
				c0.5-0.7,1.2-1.2,1.9-1.7c0.7-0.4,1.5-0.8,2.3-1.2c1.6-0.7,3.5-1.4,5.8-2.1c2.2-0.7,3.9-1.4,4.9-2v-3c0-0.5,0-1.2-0.1-2.1
				c-0.1-0.9-0.2-1.6-0.5-2.2c-0.2-0.7-0.6-1.2-1.2-1.7c-0.5-0.5-1.2-0.7-2.1-0.7c-0.8,0-1.4,0.1-2,0.4c-0.5,0.3-0.9,0.5-1.3,0.8
				c0.1,0.4,0.2,1.1,0.5,1.9c0.2,0.9,0.4,1.7,0.4,2.5c0,0.4-0.1,0.8-0.2,1.3c-0.2,0.5-0.4,1-0.7,1.3c-0.4,0.4-0.9,0.7-1.4,1
				c-0.5,0.2-1.3,0.3-2.3,0.3c-1.5,0-2.6-0.4-3.4-1.3c-0.8-0.8-1.1-1.9-1.1-3.3c0-1.2,0.4-2.2,1.2-3.1c0.8-0.9,1.8-1.7,2.9-2.3
				c1.1-0.6,2.4-1.1,3.9-1.5c1.5-0.3,2.8-0.5,4.1-0.5c1.7,0,3.3,0.1,4.7,0.4c1.4,0.2,2.7,0.7,3.9,1.5c1.1,0.7,2,1.8,2.6,3.2
				c0.6,1.4,1,3.2,1,5.4c0,2.4,0,5.2-0.1,8.4c-0.1,3.2-0.1,5.4-0.1,6.4c0,0.9,0.1,1.7,0.4,2.2c0.2,0.5,0.6,1,1.1,1.2
				c0.3,0.2,0.8,0.3,1.4,0.3c0.6,0,1.2,0,1.8,0V31.3z M281.4,15c-1,0.4-2,0.9-3,1.4c-1,0.5-1.8,1.1-2.4,1.6
				c-0.7,0.6-1.2,1.3-1.6,2.2c-0.4,0.9-0.6,2-0.6,3.2c0,1.6,0.3,2.8,1,3.5c0.6,0.7,1.4,1.1,2.3,1.1c1,0,1.8-0.2,2.4-0.7
				c0.6-0.5,1.2-1.1,1.7-1.7L281.4,15z"/>
			<path class="st0" d="M191.9,24.5c-0.6,1.2-1.4,2.3-2.3,3.4c-0.9,1.1-1.9,2-3,2.7c-1.2,0.8-2.4,1.4-3.6,1.8
				c-1.2,0.4-2.6,0.6-4.2,0.6c-2.6,0-4.9-0.4-6.8-1.3c-1.9-0.9-3.5-2.1-4.7-3.5c-1.2-1.5-2.2-3.2-2.8-5.2c-0.6-2-0.9-4.2-0.9-6.6
				c0-2.1,0.3-4.2,1-6.1c0.7-2,1.6-3.7,2.8-5.2c1.2-1.5,2.7-2.7,4.6-3.6c1.8-0.9,3.9-1.4,6.2-1.4c2.5,0,4.5,0.4,6.1,1.1
				c1.6,0.7,2.9,1.7,4,2.9c1,1.2,1.8,2.6,2.2,4.2c0.5,1.6,0.7,3.3,0.7,5.1v2h-18c0,4.3,0.7,7.5,2.1,9.8c1.4,2.2,3.6,3.4,6.7,3.4
				c1.7,0,3.2-0.5,4.5-1.6c1.3-1.1,2.5-2.4,3.4-4.1L191.9,24.5z M181.7,12.6c0-1.3-0.1-2.5-0.2-3.9c-0.1-1.3-0.3-2.4-0.6-3.2
				c-0.3-1-0.7-1.7-1.2-2.2c-0.5-0.5-1.2-0.8-2-0.8c-1.4,0-2.5,0.8-3.3,2.4c-0.8,1.6-1.3,4.2-1.3,7.7L181.7,12.6z"/>
		</g>
		<g>
			<path class="st0" d="M19.5,51V40.3h1.6c0.7,0,1.3,0.1,1.7,0.2c0.4,0.1,0.8,0.3,1.1,0.6c0.3,0.3,0.5,0.6,0.7,1
				c0.2,0.4,0.3,0.8,0.3,1.2c0,0.8-0.3,1.4-0.9,1.9c0.6,0.2,1,0.5,1.3,1c0.3,0.5,0.5,1,0.5,1.7c0,0.8-0.3,1.5-0.9,2.1
				c-0.4,0.4-0.8,0.6-1.2,0.7C23.3,50.9,22.7,51,22,51H19.5z M21.2,44.9h0.5c0.6,0,1-0.1,1.3-0.4s0.4-0.7,0.4-1.2
				c0-0.5-0.1-0.9-0.4-1.1c-0.3-0.3-0.7-0.4-1.2-0.4h-0.6V44.9z M21.2,49.5h1c0.7,0,1.3-0.1,1.6-0.4c0.4-0.3,0.5-0.7,0.5-1.2
				c0-0.5-0.2-0.8-0.5-1.2c-0.3-0.3-0.9-0.5-1.8-0.5h-0.8V49.5z"/>
			<path class="st0" d="M36.2,41.8h-4.3v2.6H36v1.5h-4.2v3.6h4.3V51h-5.9V40.3h5.9V41.8z"/>
			<path class="st0" d="M46.9,48.4h-4.6L41.2,51h-1.7l5.3-11.4L49.8,51H48L46.9,48.4z M46.3,46.9l-1.6-3.6L43,46.9H46.3z"/>
			<path class="st0" d="M60.9,40.9v1.9C60,42,59,41.6,58,41.6c-1.1,0-2,0.4-2.8,1.2c-0.8,0.8-1.1,1.7-1.1,2.9c0,1.1,0.4,2.1,1.1,2.8
				c0.8,0.8,1.7,1.2,2.8,1.2c0.6,0,1-0.1,1.4-0.3c0.2-0.1,0.5-0.2,0.7-0.4s0.5-0.3,0.8-0.6v1.9C60,50.9,59,51.2,58,51.2
				c-1.5,0-2.8-0.5-3.9-1.6c-1.1-1.1-1.6-2.4-1.6-3.9c0-1.4,0.4-2.6,1.3-3.6c1.1-1.3,2.5-2,4.3-2C59.1,40.1,60,40.4,60.9,40.9z"/>
			<path class="st0" d="M67.2,44.5h4.6v-4.2h1.6V51h-1.6v-5h-4.6v5h-1.6V40.3h1.6V44.5z"/>
			<path class="st0" d="M85,51V40.3h1.6c0.7,0,1.3,0.1,1.7,0.2c0.4,0.1,0.8,0.3,1.1,0.6c0.3,0.3,0.5,0.6,0.7,1
				c0.2,0.4,0.3,0.8,0.3,1.2c0,0.8-0.3,1.4-0.9,1.9c0.6,0.2,1,0.5,1.3,1c0.3,0.5,0.5,1,0.5,1.7c0,0.8-0.3,1.5-0.9,2.1
				c-0.4,0.4-0.8,0.6-1.2,0.7c-0.5,0.1-1.1,0.2-1.8,0.2H85z M86.7,44.9h0.5c0.6,0,1-0.1,1.3-0.4s0.4-0.7,0.4-1.2
				c0-0.5-0.1-0.9-0.4-1.1c-0.3-0.3-0.7-0.4-1.2-0.4h-0.6V44.9z M86.7,49.5h1c0.7,0,1.3-0.1,1.6-0.4c0.4-0.3,0.5-0.7,0.5-1.2
				c0-0.5-0.2-0.8-0.5-1.2c-0.3-0.3-0.9-0.5-1.8-0.5h-0.8V49.5z"/>
			<path class="st0" d="M95.2,45.6c0-1.5,0.6-2.8,1.7-3.9c1.1-1.1,2.4-1.6,4-1.6c1.5,0,2.8,0.5,3.9,1.6c1.1,1.1,1.6,2.4,1.6,3.9
				c0,1.5-0.5,2.8-1.6,3.9c-1.1,1.1-2.4,1.6-4,1.6c-1.4,0-2.6-0.5-3.7-1.4C95.8,48.7,95.2,47.3,95.2,45.6z M96.8,45.6
				c0,1.2,0.4,2.2,1.2,2.9c0.8,0.8,1.7,1.1,2.7,1.1c1.1,0,2.1-0.4,2.8-1.2c0.8-0.8,1.2-1.7,1.2-2.9c0-1.1-0.4-2.1-1.1-2.9
				c-0.8-0.8-1.7-1.2-2.8-1.2c-1.1,0-2.1,0.4-2.8,1.2C97.2,43.6,96.8,44.5,96.8,45.6z"/>
			<path class="st0" d="M112.3,40.3v6.4c0,0.9,0.1,1.6,0.4,2c0.4,0.6,1.1,0.9,1.9,0.9c0.8,0,1.4-0.3,1.9-0.9c0.3-0.4,0.4-1.1,0.4-2
				v-6.4h1.6v6.9c0,1.1-0.4,2.1-1.1,2.8c-0.8,0.8-1.8,1.2-2.9,1.2c-1.1,0-2.1-0.4-2.9-1.2c-0.7-0.7-1.1-1.7-1.1-2.8v-6.9H112.3z"/>
			<path class="st0" d="M126.5,41.8V51h-1.6v-9.2h-2.5v-1.5h6.5v1.5H126.5z"/>
			<path class="st0" d="M134.3,40.3V51h-1.6V40.3H134.3z"/>
			<path class="st0" d="M150.1,51.2h-2l-0.8-0.9c-0.9,0.6-1.9,0.9-3,0.9c-1.4,0-2.7-0.5-3.8-1.4c-1.2-1.1-1.8-2.4-1.8-4
				c0-1.6,0.6-3,1.7-4c1.1-1,2.4-1.6,3.9-1.6c1.4,0,2.6,0.5,3.6,1.4c1.3,1.1,1.9,2.5,1.9,4.3c0,1.4-0.5,2.6-1.5,3.7L150.1,51.2z
				 M145.7,46.8l1.6,1.5c0.7-0.7,1-1.6,1-2.6c0-1.1-0.4-2.1-1.1-2.9c-0.8-0.8-1.7-1.2-2.8-1.2c-1.1,0-2.1,0.4-2.8,1.2
				c-0.7,0.8-1.1,1.7-1.1,2.9c0,1.2,0.4,2.1,1.1,2.8c0.8,0.8,1.7,1.1,2.7,1.1c0.7,0,1.3-0.2,1.9-0.5l-2.5-2.4H145.7z"/>
			<path class="st0" d="M155.9,40.3v6.4c0,0.9,0.1,1.6,0.4,2c0.4,0.6,1.1,0.9,1.9,0.9c0.8,0,1.4-0.3,1.9-0.9c0.3-0.4,0.4-1.1,0.4-2
				v-6.4h1.6v6.9c0,1.1-0.4,2.1-1.1,2.8c-0.8,0.8-1.8,1.2-2.9,1.2s-2.1-0.4-2.9-1.2c-0.7-0.7-1.1-1.7-1.1-2.8v-6.9H155.9z"/>
			<path class="st0" d="M173,41.8h-4.3v2.6h4.2v1.5h-4.2v3.6h4.3V51h-5.9V40.3h5.9V41.8z"/>
			<path class="st0" d="M185.8,44.5h4.6v-4.2h1.6V51h-1.6v-5h-4.6v5h-1.6V40.3h1.6V44.5z"/>
			<path class="st0" d="M196.4,45.6c0-1.5,0.6-2.8,1.7-3.9c1.1-1.1,2.4-1.6,4-1.6c1.5,0,2.8,0.5,3.9,1.6c1.1,1.1,1.6,2.4,1.6,3.9
				c0,1.5-0.5,2.8-1.6,3.9c-1.1,1.1-2.4,1.6-4,1.6c-1.4,0-2.6-0.5-3.7-1.4C197,48.7,196.4,47.3,196.4,45.6z M198,45.6
				c0,1.2,0.4,2.2,1.2,2.9c0.8,0.8,1.7,1.1,2.7,1.1c1.1,0,2.1-0.4,2.8-1.2c0.8-0.8,1.2-1.7,1.2-2.9c0-1.1-0.4-2.1-1.1-2.9
				c-0.8-0.8-1.7-1.2-2.8-1.2c-1.1,0-2.1,0.4-2.8,1.2C198.4,43.6,198,44.5,198,45.6z"/>
			<path class="st0" d="M214.5,41.8V51h-1.6v-9.2h-2.5v-1.5h6.5v1.5H214.5z"/>
			<path class="st0" d="M226.7,41.8h-4.3v2.6h4.2v1.5h-4.2v3.6h4.3V51h-5.9V40.3h5.9V41.8z"/>
			<path class="st0" d="M232.7,40.3v9.2h3.1V51h-4.8V40.3H232.7z"/>
			<path class="st0" d="M245.2,46.9h3.1v1.4h-3.1V46.9z"/>
			<path class="st0" d="M261.9,40.3v6.9c0,0.8-0.1,1.4-0.2,1.8c-0.1,0.5-0.3,0.9-0.6,1.2c-0.5,0.6-1.3,0.9-2.1,0.9
				c-0.7,0-1.3-0.2-1.9-0.5l0.8-1.4c0.4,0.3,0.8,0.4,1.1,0.4c0.5,0,0.8-0.2,1-0.5c0.2-0.4,0.3-1,0.3-1.9v-6.9H261.9z"/>
			<path class="st0" d="M272.7,41.8h-4.3v2.6h4.2v1.5h-4.2v3.6h4.3V51h-5.9V40.3h5.9V41.8z"/>
			<path class="st0" d="M283.2,41.9l-1.3,0.8c-0.2-0.4-0.5-0.7-0.7-0.8c-0.2-0.1-0.5-0.2-0.9-0.2c-0.4,0-0.8,0.1-1.1,0.4
				c-0.3,0.2-0.4,0.6-0.4,0.9c0,0.5,0.4,0.9,1.2,1.3l1.1,0.4c0.9,0.4,1.5,0.8,1.9,1.3s0.6,1.1,0.6,1.9c0,1-0.3,1.8-1,2.4
				c-0.7,0.6-1.5,1-2.5,1c-0.9,0-1.7-0.3-2.3-0.8c-0.6-0.5-1-1.3-1.1-2.3l1.6-0.4c0.1,0.6,0.2,1.1,0.4,1.3c0.3,0.5,0.8,0.7,1.5,0.7
				c0.5,0,0.9-0.2,1.3-0.5c0.3-0.3,0.5-0.8,0.5-1.3c0-0.2,0-0.4-0.1-0.6c-0.1-0.2-0.1-0.3-0.3-0.5s-0.3-0.3-0.5-0.4
				c-0.2-0.1-0.4-0.2-0.7-0.4l-1-0.4c-1.5-0.6-2.2-1.5-2.2-2.7c0-0.8,0.3-1.5,0.9-2c0.6-0.5,1.4-0.8,2.3-0.8
				C281.6,40.1,282.5,40.7,283.2,41.9z"/>
			<path class="st0" d="M287.3,45.6c0-1.5,0.6-2.8,1.7-3.9c1.1-1.1,2.4-1.6,4-1.6c1.5,0,2.8,0.5,3.9,1.6c1.1,1.1,1.6,2.4,1.6,3.9
				c0,1.5-0.5,2.8-1.6,3.9c-1.1,1.1-2.4,1.6-4,1.6c-1.4,0-2.6-0.5-3.7-1.4C287.9,48.7,287.3,47.3,287.3,45.6z M288.9,45.6
				c0,1.2,0.4,2.2,1.2,2.9c0.8,0.8,1.7,1.1,2.7,1.1c1.1,0,2.1-0.4,2.8-1.2c0.8-0.8,1.2-1.7,1.2-2.9c0-1.1-0.4-2.1-1.1-2.9
				c-0.8-0.8-1.7-1.2-2.8-1.2c-1.1,0-2.1,0.4-2.8,1.2C289.3,43.6,288.9,44.5,288.9,45.6z"/>
			<path class="st0" d="M304.4,40.3v9.2h3.1V51h-4.8V40.3H304.4z"/>
			<path class="st0" d="M310.5,45.6c0-1.5,0.6-2.8,1.7-3.9c1.1-1.1,2.4-1.6,4-1.6c1.5,0,2.8,0.5,3.9,1.6c1.1,1.1,1.6,2.4,1.6,3.9
				c0,1.5-0.5,2.8-1.6,3.9c-1.1,1.1-2.4,1.6-4,1.6c-1.4,0-2.6-0.5-3.7-1.4C311.1,48.7,310.5,47.3,310.5,45.6z M312.1,45.6
				c0,1.2,0.4,2.2,1.2,2.9c0.8,0.8,1.7,1.1,2.7,1.1c1.1,0,2.1-0.4,2.8-1.2c0.8-0.8,1.2-1.7,1.2-2.9c0-1.1-0.4-2.1-1.1-2.9
				c-0.8-0.8-1.7-1.2-2.8-1.2c-1.1,0-2.1,0.4-2.8,1.2C312.5,43.6,312.1,44.5,312.1,45.6z"/>
		</g>
		<polygon class="st0" points="141.8,60 142.7,62.6 145.4,62.7 143.3,64.4 144,67 141.8,65.5 139.5,67 140.2,64.4 138.1,62.7 
			140.8,62.6 		"/>
		<polygon class="st0" points="182.3,60 183.3,62.6 186,62.7 183.8,64.4 184.6,67 182.3,65.5 180,67 180.7,64.4 178.6,62.7 
			181.3,62.6 		"/>
		<g>
			<g>
				<polygon class="st0" points="155.6,60.1 156.6,62.6 159.2,62.7 157.1,64.4 157.8,67 155.6,65.5 153.4,67 154.1,64.4 152,62.7 
					154.7,62.6 				"/>
				<polygon class="st0" points="169,60.1 169.9,62.6 172.6,62.7 170.5,64.4 171.2,67 169,65.5 166.7,67 167.4,64.4 165.3,62.7 
					168,62.6 				"/>
			</g>
		</g>
		<g>
			<path class="st0" d="M192.5,65.2l1.1-0.2c0.1,0.6,0.6,0.9,1.5,0.9c0.4,0,0.7-0.1,0.9-0.2c0.2-0.2,0.3-0.3,0.3-0.6
				c0-0.2,0-0.3-0.1-0.5c-0.1-0.1-0.3-0.3-0.6-0.3l-1.2-0.3c-0.4-0.1-0.7-0.2-0.9-0.4c-0.2-0.1-0.3-0.3-0.5-0.5
				c-0.1-0.2-0.2-0.5-0.2-0.8c0-0.5,0.2-1,0.6-1.3c0.4-0.3,0.9-0.5,1.6-0.5c0.5,0,1,0.1,1.4,0.3c0.4,0.2,0.7,0.6,0.8,1l-1,0.3
				c-0.2-0.5-0.5-0.7-1.1-0.7c-0.3,0-0.6,0.1-0.8,0.2c-0.2,0.1-0.3,0.3-0.3,0.5c0,0.3,0.3,0.6,0.9,0.7l1,0.3
				c0.6,0.2,1.1,0.4,1.3,0.7c0.2,0.3,0.3,0.6,0.3,1c0,0.6-0.2,1.1-0.7,1.4c-0.5,0.3-1,0.5-1.8,0.5c-0.6,0-1.1-0.1-1.6-0.4
				C193,66.1,192.7,65.7,192.5,65.2z"/>
		</g>
	</g>
</g>
<g id="Livello_2">
</g>
</svg>
