<svg id="Componente_14_64" data-name="Componente 14 – 64" xmlns="http://www.w3.org/2000/svg" width="280" height="96.457" viewBox="0 0 280 96.457">
  <g id="Raggruppa_2" data-name="Raggruppa 2" transform="translate(177.095 25.271)">
    <path id="Tracciato_19" data-name="Tracciato 19" d="M365.588,356.5l-3.394,7.987H348.618l18.928-45.973h13.969l18.538,45.973H386.411l-3.2-7.987Zm8.943-23.779H374.4l-5.286,14.634h10.639Z" transform="translate(-348.618 -318.513)" fill="#4a5258"/>
    <path id="Tracciato_20" data-name="Tracciato 20" d="M419.231,318.513h12.794l23.432,28.108h.132V318.513h12.793v45.973H455.589l-23.434-28.169h-.13v28.169H419.231Z" transform="translate(-365.477 -318.513)" fill="#4a5258"/>
  </g>
  <path id="Tracciato_21" data-name="Tracciato 21" d="M307.934,358.909a22.4,22.4,0,0,1,5.429-9.888c1.471,1.829,4.138,6.455,7.493,6.564,3.871.126,3.738-4.207,3.738-6.768v-30.3h13.09v31.035c0,9.694-5.543,16.157-16.7,16.157A15.555,15.555,0,0,1,307.934,358.909Z" transform="translate(-162.494 -293.234)" fill="#4a5258"/>
  <path id="Tracciato_22" data-name="Tracciato 22" d="M294.31,364.36a22.257,22.257,0,0,0-22.232-22.324v-1.047a22.412,22.412,0,0,0,22.19-22.548H285.32l-13.4,13.532V318.441H258.848V364.36h13.071V351.2l13.142,13.157Z" transform="translate(-151.004 -293.225)" fill="#4a5258"/>
  <g id="Raggruppa_3" data-name="Raggruppa 3">
    <path id="Tracciato_23" data-name="Tracciato 23" d="M173.847,364.361a22.256,22.256,0,0,1,22.231-22.324V340.99a22.412,22.412,0,0,1-22.189-22.548h-.9A22.412,22.412,0,0,1,150.8,340.99v1.047a22.256,22.256,0,0,1,22.232,22.324Z" transform="translate(-125.927 -293.225)" fill="#4a5258"/>
    <path id="Tracciato_24" data-name="Tracciato 24" d="M213.346,333.908c0,26.638-21.314,48.234-47.607,48.234s-47.612-21.6-47.612-48.234,21.313-48.223,47.612-48.223S213.346,307.276,213.346,333.908Zm-57.367,23.048-13.141,0V370.2h45.6V356.957l-13.142,0,13.142-13.235v13.235H201.51V310.767H188.438v13.612l-13.4-13.611h13.4V297.526h-45.6v13.241h13.4l-13.4,13.611V310.767H129.765v46.189h13.072V343.721Z" transform="translate(-118.127 -285.685)" fill="#4a5258"/>
  </g>
  <g id="Raggruppa_4" data-name="Raggruppa 4" transform="translate(108.797 77.583)">
    <path id="Tracciato_25" data-name="Tracciato 25" d="M258.9,387.013h1.414v6H263.5V394.1h-4.6Z" transform="translate(-258.9 -386.897)" fill="#4a5258"/>
    <path id="Tracciato_26" data-name="Tracciato 26" d="M279.769,390.956h-2.92v2.083h3.265V394.1h-4.679v-7.088h4.506v1.063h-3.092v1.83h2.92Z" transform="translate(-262.848 -386.897)" fill="#4a5258"/>
    <path id="Tracciato_27" data-name="Tracciato 27" d="M293.717,387.013V394.1H292.3v-7.088Z" transform="translate(-266.875 -386.897)" fill="#4a5258"/>
    <path id="Tracciato_28" data-name="Tracciato 28" d="M305.24,392.656a4.188,4.188,0,0,0,1.873.452c.908,0,1.414-.389,1.414-.967,0-.536-.391-.852-1.379-1.178-1.276-.421-2.092-1.041-2.092-2.061,0-1.157,1.058-2.041,2.737-2.041a4.412,4.412,0,0,1,1.862.359l-.346,1.041a3.528,3.528,0,0,0-1.541-.336c-.9,0-1.286.442-1.286.852,0,.547.448.8,1.481,1.167,1.345.463,2,1.083,2,2.1,0,1.136-.942,2.135-2.941,2.135a4.928,4.928,0,0,1-2.092-.452Z" transform="translate(-269.89 -386.861)" fill="#4a5258"/>
    <path id="Tracciato_29" data-name="Tracciato 29" d="M323.707,387.013v4.133c0,1.389.633,2.03,1.586,2.03,1.024,0,1.633-.642,1.633-2.03v-4.133h1.414v4.049a2.807,2.807,0,0,1-3.091,3.155c-1.8,0-2.955-.915-2.955-3.144v-4.06Z" transform="translate(-274.035 -386.897)" fill="#4a5258"/>
    <path id="Tracciato_30" data-name="Tracciato 30" d="M341.457,387.092a14.589,14.589,0,0,1,2.138-.148,3.835,3.835,0,0,1,2.39.569,1.726,1.726,0,0,1,.666,1.419,1.914,1.914,0,0,1-1.4,1.778v.032a1.828,1.828,0,0,1,1.081,1.366,13.345,13.345,0,0,0,.61,1.977h-1.46a9.353,9.353,0,0,1-.518-1.672c-.218-.926-.585-1.22-1.39-1.241h-.713v2.912h-1.4Zm1.4,3.133h.837c.955,0,1.552-.462,1.552-1.167,0-.778-.6-1.135-1.516-1.135a4.385,4.385,0,0,0-.873.063Z" transform="translate(-278.61 -386.881)" fill="#4a5258"/>
    <path id="Tracciato_31" data-name="Tracciato 31" d="M363.475,390.956h-2.92v2.083h3.265V394.1h-4.678v-7.088h4.5v1.063h-3.091v1.83h2.92Z" transform="translate(-282.833 -386.897)" fill="#4a5258"/>
    <path id="Tracciato_32" data-name="Tracciato 32" d="M389.639,387.013v2.839h3.276v-2.839h1.414V394.1h-1.414v-3.123h-3.276V394.1h-1.414v-7.088Z" transform="translate(-289.776 -386.897)" fill="#4a5258"/>
    <path id="Tracciato_33" data-name="Tracciato 33" d="M414.212,390.448a3.493,3.493,0,0,1-3.714,3.732,3.405,3.405,0,0,1-3.563-3.607,3.53,3.53,0,0,1,3.678-3.713A3.408,3.408,0,0,1,414.212,390.448Zm-5.783.1c0,1.44.792,2.6,2.149,2.6s2.137-1.167,2.137-2.649c0-1.336-.723-2.609-2.137-2.609S408.43,389.092,408.43,390.553Z" transform="translate(-294.243 -386.861)" fill="#4a5258"/>
    <path id="Tracciato_34" data-name="Tracciato 34" d="M428.034,388.1h-2.208v-1.084h5.851V388.1h-2.229v6h-1.414Z" transform="translate(-298.753 -386.897)" fill="#4a5258"/>
    <path id="Tracciato_35" data-name="Tracciato 35" d="M448.13,390.956h-2.921v2.083h3.266V394.1H443.8v-7.088H448.3v1.063h-3.093v1.83h2.921Z" transform="translate(-303.043 -386.897)" fill="#4a5258"/>
    <path id="Tracciato_36" data-name="Tracciato 36" d="M460.664,387.013h1.414v6h3.184V394.1h-4.6Z" transform="translate(-307.071 -386.897)" fill="#4a5258"/>
    <path id="Tracciato_37" data-name="Tracciato 37" d="M477.057,392.656a4.2,4.2,0,0,0,1.874.452c.907,0,1.414-.389,1.414-.967,0-.536-.392-.852-1.379-1.178-1.276-.421-2.092-1.041-2.092-2.061,0-1.157,1.058-2.041,2.735-2.041a4.409,4.409,0,0,1,1.862.359l-.345,1.041a3.53,3.53,0,0,0-1.54-.336c-.9,0-1.287.442-1.287.852,0,.547.448.8,1.482,1.167,1.345.463,2,1.083,2,2.1,0,1.136-.943,2.135-2.942,2.135a4.941,4.941,0,0,1-2.093-.452Z" transform="translate(-310.91 -386.861)" fill="#4a5258"/>
  </g>
</svg>
