<?xml version="1.0" encoding="utf-8"?>
<!-- Generator: Adobe Illustrator 26.0.2, SVG Export Plug-In . SVG Version: 6.00 Build 0)  -->
<svg version="1.1" xmlns="http://www.w3.org/2000/svg" xmlns:xlink="http://www.w3.org/1999/xlink" x="0px" y="0px"
	 viewBox="0 0 311.5 67" style="enable-background:new 0 0 311.5 67;" xml:space="preserve">
<style type="text/css">
	.st0{fill:#8C9396;}
	.st1{fill:#BC4050;}
</style>
<g id="Livello_1">
	<g>
		<path class="st1" d="M3,0.1h12.3c2.9,0,5.2,0.7,6.7,2.1c1.5,1.4,2.3,3.4,2.3,6.1c0,1.6-0.3,2.9-0.9,4c-0.6,1.1-1.5,1.9-2.6,2.7
			c1.2,0.2,2.2,0.6,3,1c0.8,0.5,1.5,1,2,1.7c0.5,0.7,0.9,1.4,1.1,2.3c0.2,0.8,0.3,1.7,0.3,2.7c0,1.5-0.3,2.8-0.8,4
			c-0.5,1.2-1.3,2.1-2.2,2.9c-0.9,0.8-2.1,1.4-3.4,1.8c-1.4,0.4-2.9,0.6-4.6,0.6H3V0.1z M11.2,12.6h1.5c2.6,0,3.9-1,3.9-3.1
			c0-2.1-1.3-3.1-3.9-3.1h-1.5V12.6z M11.2,25.6H13c2.1,0,3.6-0.3,4.5-0.8c0.9-0.5,1.4-1.4,1.4-2.6c0-1.2-0.5-2-1.4-2.6
			c-0.9-0.5-2.4-0.8-4.5-0.8h-1.8V25.6z"/>
		<path class="st1" d="M71,0.1V32h-8.3V0.1H71z"/>
		<path class="st1" d="M116.5,0.1h12.2c2.2,0,4.2,0.4,6.1,1.3c1.9,0.9,3.6,2,5,3.5c1.4,1.5,2.5,3.1,3.4,5.1c0.8,1.9,1.2,3.9,1.2,6.1
			c0,2.1-0.4,4.1-1.2,6c-0.8,1.9-1.9,3.6-3.3,5.1s-3.1,2.6-5,3.5c-1.9,0.9-3.9,1.3-6.1,1.3h-12.2V0.1z M124.8,25h1.9
			c1.4,0,2.7-0.2,3.8-0.7c1.1-0.4,2.1-1.1,2.8-1.9c0.8-0.8,1.4-1.7,1.8-2.8c0.4-1.1,0.6-2.3,0.6-3.6c0-1.3-0.2-2.4-0.6-3.5
			c-0.4-1.1-1-2-1.8-2.8c-0.8-0.8-1.7-1.4-2.9-1.9c-1.1-0.4-2.4-0.7-3.8-0.7h-1.9V25z"/>
		<path class="st1" d="M187.3,0.1V25h9.9v7h-18.2V0.1H187.3z"/>
		<path class="st1" d="M205.5,32l5.4-31.8h8.2l6.4,17l6.3-17h8.2l5.4,31.8h-8.2l-2.7-18.3L226.9,32h-3.3l-7.1-18.3L213.7,32H205.5z"
			/>
		<path class="st1" d="M308.5,32h-10.3l-7.9-12.2V32H282V0.1h12.9c1.8,0,3.3,0.3,4.6,0.8c1.3,0.5,2.4,1.2,3.3,2.1
			c0.9,0.9,1.5,1.9,1.9,3.1c0.4,1.2,0.7,2.4,0.7,3.8c0,2.4-0.6,4.4-1.8,5.9c-1.2,1.5-2.9,2.5-5.2,3.1L308.5,32z M290.3,14.4h1.6
			c1.6,0,2.9-0.3,3.8-1c0.9-0.7,1.3-1.6,1.3-2.9c0-1.3-0.4-2.2-1.3-2.9c-0.9-0.7-2.1-1-3.8-1h-1.6V14.4z"/>
		<g>
			<path class="st1" d="M60.2,31.3c-0.8,0.4-1.7,0.8-2.8,1.1c-1.1,0.3-2.2,0.5-3.4,0.5c-2.2,0-3.8-0.4-4.8-1.1
				c-1-0.8-1.7-1.9-2.1-3.3H47c-0.6,0.7-1.2,1.3-1.7,1.8c-0.6,0.5-1.2,0.9-1.8,1.3c-0.8,0.5-1.6,0.8-2.4,1c-0.8,0.2-1.9,0.3-3.2,0.3
				c-2.1,0-3.8-0.7-5.3-2.1c-1.5-1.4-2.2-3.3-2.2-5.7c0-1.4,0.2-2.5,0.5-3.5c0.3-1,0.8-1.8,1.4-2.5c0.5-0.7,1.2-1.2,1.9-1.7
				c0.7-0.4,1.5-0.8,2.3-1.2c1.6-0.7,3.5-1.4,5.8-2.1c2.2-0.7,3.9-1.4,4.9-2v-3c0-0.5,0-1.2-0.1-2.1c-0.1-0.9-0.2-1.6-0.5-2.2
				c-0.3-0.7-0.6-1.2-1.2-1.7c-0.5-0.5-1.2-0.7-2.1-0.7c-0.8,0-1.4,0.1-2,0.4c-0.5,0.3-0.9,0.5-1.3,0.8c0.1,0.4,0.2,1.1,0.5,1.9
				c0.2,0.9,0.4,1.7,0.4,2.5c0,0.4-0.1,0.8-0.2,1.3c-0.2,0.5-0.4,1-0.7,1.3c-0.4,0.4-0.9,0.7-1.4,1c-0.5,0.2-1.3,0.3-2.3,0.3
				c-1.5,0-2.6-0.4-3.4-1.3c-0.8-0.8-1.2-1.9-1.2-3.3c0-1.2,0.4-2.2,1.2-3.1c0.8-0.9,1.8-1.7,2.9-2.3c1.1-0.6,2.4-1.1,3.9-1.5
				C40.9,0.2,42.3,0,43.5,0c1.7,0,3.3,0.1,4.7,0.4c1.4,0.2,2.7,0.7,3.9,1.5c1.1,0.7,2,1.8,2.6,3.2c0.6,1.4,1,3.2,1,5.4
				c0,2.4,0,5.2-0.1,8.4c-0.1,3.2-0.1,5.4-0.1,6.4c0,0.9,0.1,1.7,0.4,2.2c0.2,0.5,0.6,1,1.1,1.2c0.3,0.2,0.8,0.3,1.4,0.3
				c0.6,0,1.2,0,1.8,0V31.3z M47,15c-1,0.4-2,0.9-3,1.4c-1,0.5-1.8,1.1-2.4,1.6c-0.7,0.6-1.2,1.3-1.6,2.2c-0.4,0.9-0.6,2-0.6,3.2
				c0,1.6,0.3,2.8,1,3.5c0.6,0.7,1.4,1.1,2.3,1.1c1,0,1.8-0.2,2.4-0.7c0.6-0.5,1.2-1.1,1.7-1.7L47,15z"/>
			<path class="st1" d="M105,31.3c-0.8,0.4-1.7,0.8-2.8,1.1c-1.1,0.3-2.2,0.5-3.4,0.5c-2.2,0-3.8-0.4-4.8-1.1
				c-1-0.8-1.7-1.9-2.1-3.3h-0.2c-0.6,0.7-1.2,1.3-1.7,1.8c-0.6,0.5-1.2,0.9-1.8,1.3c-0.8,0.5-1.6,0.8-2.4,1
				C85,32.9,83.9,33,82.6,33c-2.1,0-3.8-0.7-5.3-2.1c-1.5-1.4-2.2-3.3-2.2-5.7c0-1.4,0.2-2.5,0.5-3.5c0.3-1,0.8-1.8,1.4-2.5
				c0.5-0.7,1.2-1.2,1.9-1.7c0.7-0.4,1.5-0.8,2.3-1.2c1.6-0.7,3.5-1.4,5.8-2.1c2.2-0.7,3.9-1.4,4.9-2v-3c0-0.5,0-1.2-0.1-2.1
				c-0.1-0.9-0.2-1.6-0.5-2.2C91,4.2,90.6,3.7,90,3.2c-0.5-0.5-1.2-0.7-2.1-0.7c-0.8,0-1.4,0.1-2,0.4c-0.5,0.3-0.9,0.5-1.3,0.8
				c0.1,0.4,0.2,1.1,0.5,1.9c0.2,0.9,0.4,1.7,0.4,2.5c0,0.4-0.1,0.8-0.2,1.3c-0.2,0.5-0.4,1-0.7,1.3c-0.4,0.4-0.9,0.7-1.4,1
				c-0.5,0.2-1.3,0.3-2.3,0.3c-1.5,0-2.6-0.4-3.4-1.3c-0.8-0.8-1.2-1.9-1.2-3.3c0-1.2,0.4-2.2,1.2-3.1c0.8-0.9,1.8-1.7,2.9-2.3
				c1.1-0.6,2.4-1.1,3.9-1.5C85.7,0.2,87.1,0,88.3,0c1.7,0,3.3,0.1,4.7,0.4c1.4,0.2,2.7,0.7,3.9,1.5c1.1,0.7,2,1.8,2.6,3.2
				c0.6,1.4,1,3.2,1,5.4c0,2.4,0,5.2-0.1,8.4c-0.1,3.2-0.1,5.4-0.1,6.4c0,0.9,0.1,1.7,0.4,2.2c0.2,0.5,0.6,1,1.1,1.2
				c0.3,0.2,0.8,0.3,1.4,0.3c0.6,0,1.2,0,1.8,0V31.3z M91.8,15c-1,0.4-2,0.9-3,1.4c-1,0.5-1.8,1.1-2.4,1.6c-0.7,0.6-1.2,1.3-1.6,2.2
				c-0.4,0.9-0.6,2-0.6,3.2c0,1.6,0.3,2.8,1,3.5c0.6,0.7,1.4,1.1,2.3,1.1c1,0,1.8-0.2,2.4-0.7c0.6-0.5,1.2-1.1,1.7-1.7L91.8,15z"/>
			<path class="st1" d="M278.4,31.3c-0.8,0.4-1.7,0.8-2.8,1.1c-1.1,0.3-2.2,0.5-3.4,0.5c-2.2,0-3.8-0.4-4.8-1.1
				c-1-0.8-1.7-1.9-2.1-3.3h-0.2c-0.6,0.7-1.2,1.3-1.7,1.8c-0.6,0.5-1.2,0.9-1.8,1.3c-0.8,0.5-1.6,0.8-2.4,1
				c-0.8,0.2-1.9,0.3-3.2,0.3c-2.1,0-3.8-0.7-5.3-2.1c-1.5-1.4-2.2-3.3-2.2-5.7c0-1.4,0.2-2.5,0.5-3.5c0.3-1,0.8-1.8,1.4-2.5
				c0.5-0.7,1.2-1.2,1.9-1.7c0.7-0.4,1.5-0.8,2.3-1.2c1.6-0.7,3.5-1.4,5.8-2.1c2.2-0.7,3.9-1.4,4.9-2v-3c0-0.5,0-1.2-0.1-2.1
				c-0.1-0.9-0.2-1.6-0.5-2.2c-0.2-0.7-0.6-1.2-1.2-1.7c-0.5-0.5-1.2-0.7-2.1-0.7c-0.8,0-1.4,0.1-2,0.4c-0.5,0.3-0.9,0.5-1.3,0.8
				c0.1,0.4,0.2,1.1,0.5,1.9c0.2,0.9,0.4,1.7,0.4,2.5c0,0.4-0.1,0.8-0.2,1.3c-0.2,0.5-0.4,1-0.7,1.3c-0.4,0.4-0.9,0.7-1.4,1
				c-0.5,0.2-1.3,0.3-2.3,0.3c-1.5,0-2.6-0.4-3.4-1.3c-0.8-0.8-1.1-1.9-1.1-3.3c0-1.2,0.4-2.2,1.2-3.1c0.8-0.9,1.8-1.7,2.9-2.3
				c1.1-0.6,2.4-1.1,3.9-1.5c1.5-0.3,2.8-0.5,4.1-0.5c1.7,0,3.3,0.1,4.7,0.4c1.4,0.2,2.7,0.7,3.9,1.5c1.1,0.7,2,1.8,2.6,3.2
				c0.6,1.4,1,3.2,1,5.4c0,2.4,0,5.2-0.1,8.4c-0.1,3.2-0.1,5.4-0.1,6.4c0,0.9,0.1,1.7,0.4,2.2c0.2,0.5,0.6,1,1.1,1.2
				c0.3,0.2,0.8,0.3,1.4,0.3c0.6,0,1.2,0,1.8,0V31.3z M265.2,15c-1,0.4-2,0.9-3,1.4c-1,0.5-1.8,1.1-2.4,1.6
				c-0.7,0.6-1.2,1.3-1.6,2.2c-0.4,0.9-0.6,2-0.6,3.2c0,1.6,0.3,2.8,1,3.5c0.6,0.7,1.4,1.1,2.3,1.1c1,0,1.8-0.2,2.4-0.7
				c0.6-0.5,1.2-1.1,1.7-1.7L265.2,15z"/>
			<path class="st1" d="M175.7,24.5c-0.6,1.2-1.4,2.3-2.3,3.4c-0.9,1.1-1.9,2-3,2.7c-1.2,0.8-2.4,1.4-3.6,1.8
				c-1.2,0.4-2.6,0.6-4.2,0.6c-2.6,0-4.9-0.4-6.8-1.3c-1.9-0.9-3.5-2.1-4.7-3.5c-1.2-1.5-2.2-3.2-2.8-5.2c-0.6-2-0.9-4.2-0.9-6.6
				c0-2.1,0.3-4.2,1-6.1c0.7-2,1.6-3.7,2.8-5.2c1.2-1.5,2.7-2.7,4.6-3.6c1.8-0.9,3.9-1.4,6.2-1.4c2.5,0,4.5,0.4,6.1,1.1
				c1.6,0.7,2.9,1.7,4,2.9c1,1.2,1.8,2.6,2.2,4.2c0.5,1.6,0.7,3.3,0.7,5.1v2h-18c0,4.3,0.7,7.5,2.1,9.8c1.4,2.2,3.6,3.4,6.7,3.4
				c1.7,0,3.2-0.5,4.5-1.6c1.3-1.1,2.5-2.4,3.4-4.1L175.7,24.5z M165.5,12.6c0-1.3-0.1-2.5-0.2-3.9c-0.1-1.3-0.3-2.4-0.6-3.2
				c-0.3-1-0.7-1.7-1.2-2.2c-0.5-0.5-1.2-0.8-2-0.8c-1.4,0-2.5,0.8-3.3,2.4c-0.8,1.6-1.3,4.2-1.3,7.7L165.5,12.6z"/>
		</g>
		<g>
			<path class="st1" d="M3.3,51V40.3h1.6c0.7,0,1.3,0.1,1.7,0.2C7,40.6,7.4,40.8,7.7,41c0.3,0.3,0.5,0.6,0.7,1
				c0.2,0.4,0.3,0.8,0.3,1.2c0,0.8-0.3,1.4-0.9,1.9c0.6,0.2,1,0.5,1.3,1c0.3,0.5,0.5,1,0.5,1.7c0,0.8-0.3,1.5-0.9,2.1
				c-0.4,0.4-0.8,0.6-1.2,0.7C7,50.9,6.4,51,5.7,51H3.3z M4.9,44.9h0.5c0.6,0,1-0.1,1.3-0.4s0.4-0.7,0.4-1.2c0-0.5-0.1-0.9-0.4-1.1
				c-0.3-0.3-0.7-0.4-1.2-0.4H4.9V44.9z M4.9,49.5h1c0.7,0,1.3-0.1,1.6-0.4C7.8,48.7,8,48.4,8,47.9c0-0.5-0.2-0.8-0.5-1.2
				c-0.3-0.3-0.9-0.5-1.8-0.5H4.9V49.5z"/>
			<path class="st1" d="M19.9,41.8h-4.3v2.6h4.2v1.5h-4.2v3.6h4.3V51H14V40.3h5.9V41.8z"/>
			<path class="st1" d="M30.6,48.4h-4.6L24.9,51h-1.7l5.3-11.4L33.5,51h-1.8L30.6,48.4z M30,46.9l-1.6-3.6l-1.7,3.6H30z"/>
			<path class="st1" d="M44.6,40.9v1.9c-0.9-0.8-1.9-1.2-2.9-1.2c-1.1,0-2,0.4-2.8,1.2c-0.8,0.8-1.1,1.7-1.1,2.9
				c0,1.1,0.4,2.1,1.1,2.8s1.7,1.2,2.8,1.2c0.6,0,1-0.1,1.4-0.3c0.2-0.1,0.5-0.2,0.7-0.4s0.5-0.3,0.8-0.6v1.9
				c-0.9,0.5-1.9,0.8-2.9,0.8c-1.5,0-2.8-0.5-3.9-1.6c-1.1-1.1-1.6-2.4-1.6-3.9c0-1.4,0.4-2.6,1.3-3.6c1.1-1.3,2.5-2,4.3-2
				C42.8,40.1,43.7,40.4,44.6,40.9z"/>
			<path class="st1" d="M50.9,44.5h4.6v-4.2h1.6V51h-1.6v-5h-4.6v5h-1.6V40.3h1.6V44.5z"/>
			<path class="st1" d="M68.8,51V40.3h1.6c0.7,0,1.3,0.1,1.7,0.2c0.4,0.1,0.8,0.3,1.1,0.6c0.3,0.3,0.5,0.6,0.7,1
				c0.2,0.4,0.3,0.8,0.3,1.2c0,0.8-0.3,1.4-0.9,1.9c0.6,0.2,1,0.5,1.3,1c0.3,0.5,0.5,1,0.5,1.7c0,0.8-0.3,1.5-0.9,2.1
				c-0.4,0.4-0.8,0.6-1.2,0.7c-0.5,0.1-1.1,0.2-1.8,0.2H68.8z M70.4,44.9h0.5c0.6,0,1-0.1,1.3-0.4s0.4-0.7,0.4-1.2
				c0-0.5-0.1-0.9-0.4-1.1c-0.3-0.3-0.7-0.4-1.2-0.4h-0.6V44.9z M70.4,49.5h1c0.7,0,1.3-0.1,1.6-0.4c0.4-0.3,0.5-0.7,0.5-1.2
				c0-0.5-0.2-0.8-0.5-1.2c-0.3-0.3-0.9-0.5-1.8-0.5h-0.8V49.5z"/>
			<path class="st1" d="M78.9,45.6c0-1.5,0.6-2.8,1.7-3.9c1.1-1.1,2.4-1.6,4-1.6c1.5,0,2.8,0.5,3.9,1.6c1.1,1.1,1.6,2.4,1.6,3.9
				c0,1.5-0.5,2.8-1.6,3.9c-1.1,1.1-2.4,1.6-4,1.6c-1.4,0-2.6-0.5-3.7-1.4C79.5,48.7,78.9,47.3,78.9,45.6z M80.5,45.6
				c0,1.2,0.4,2.2,1.2,2.9c0.8,0.8,1.7,1.1,2.7,1.1c1.1,0,2.1-0.4,2.8-1.2c0.8-0.8,1.2-1.7,1.2-2.9c0-1.1-0.4-2.1-1.1-2.9
				c-0.8-0.8-1.7-1.2-2.8-1.2c-1.1,0-2.1,0.4-2.8,1.2C80.9,43.6,80.5,44.5,80.5,45.6z"/>
			<path class="st1" d="M96,40.3v6.4c0,0.9,0.1,1.6,0.4,2c0.4,0.6,1.1,0.9,1.9,0.9c0.8,0,1.4-0.3,1.9-0.9c0.3-0.4,0.4-1.1,0.4-2
				v-6.4h1.6v6.9c0,1.1-0.4,2.1-1.1,2.8c-0.8,0.8-1.8,1.2-2.9,1.2c-1.1,0-2.1-0.4-2.9-1.2c-0.7-0.7-1.1-1.7-1.1-2.8v-6.9H96z"/>
			<path class="st1" d="M110.2,41.8V51h-1.6v-9.2h-2.5v-1.5h6.5v1.5H110.2z"/>
			<path class="st1" d="M118.1,40.3V51h-1.6V40.3H118.1z"/>
			<path class="st1" d="M133.8,51.2h-2l-0.8-0.9c-0.9,0.6-1.9,0.9-3,0.9c-1.4,0-2.7-0.5-3.8-1.4c-1.2-1.1-1.8-2.4-1.8-4
				c0-1.6,0.6-3,1.7-4c1.1-1,2.4-1.6,3.9-1.6c1.4,0,2.6,0.5,3.6,1.4c1.3,1.1,1.9,2.5,1.9,4.3c0,1.4-0.5,2.6-1.5,3.7L133.8,51.2z
				 M129.4,46.8l1.6,1.5c0.7-0.7,1-1.6,1-2.6c0-1.1-0.4-2.1-1.1-2.9c-0.8-0.8-1.7-1.2-2.8-1.2c-1.1,0-2.1,0.4-2.8,1.2
				c-0.7,0.8-1.1,1.7-1.1,2.9c0,1.2,0.4,2.1,1.1,2.8c0.8,0.8,1.7,1.1,2.7,1.1c0.7,0,1.3-0.2,1.9-0.5l-2.5-2.4H129.4z"/>
			<path class="st1" d="M139.6,40.3v6.4c0,0.9,0.1,1.6,0.4,2c0.4,0.6,1.1,0.9,1.9,0.9c0.8,0,1.4-0.3,1.9-0.9c0.3-0.4,0.4-1.1,0.4-2
				v-6.4h1.6v6.9c0,1.1-0.4,2.1-1.1,2.8c-0.8,0.8-1.8,1.2-2.9,1.2c-1.1,0-2.1-0.4-2.9-1.2c-0.7-0.7-1.1-1.7-1.1-2.8v-6.9H139.6z"/>
			<path class="st1" d="M156.7,41.8h-4.3v2.6h4.2v1.5h-4.2v3.6h4.3V51h-5.9V40.3h5.9V41.8z"/>
			<path class="st1" d="M169.5,44.5h4.6v-4.2h1.6V51h-1.6v-5h-4.6v5h-1.6V40.3h1.6V44.5z"/>
			<path class="st1" d="M180.1,45.6c0-1.5,0.6-2.8,1.7-3.9c1.1-1.1,2.4-1.6,4-1.6c1.5,0,2.8,0.5,3.9,1.6c1.1,1.1,1.6,2.4,1.6,3.9
				c0,1.5-0.5,2.8-1.6,3.9c-1.1,1.1-2.4,1.6-4,1.6c-1.4,0-2.6-0.5-3.7-1.4C180.7,48.7,180.1,47.3,180.1,45.6z M181.8,45.6
				c0,1.2,0.4,2.2,1.2,2.9c0.8,0.8,1.7,1.1,2.7,1.1c1.1,0,2.1-0.4,2.8-1.2c0.8-0.8,1.2-1.7,1.2-2.9c0-1.1-0.4-2.1-1.1-2.9
				c-0.8-0.8-1.7-1.2-2.8-1.2c-1.1,0-2.1,0.4-2.8,1.2C182.1,43.6,181.8,44.5,181.8,45.6z"/>
			<path class="st1" d="M198.2,41.8V51h-1.6v-9.2h-2.5v-1.5h6.5v1.5H198.2z"/>
			<path class="st1" d="M210.4,41.8h-4.3v2.6h4.2v1.5h-4.2v3.6h4.3V51h-5.9V40.3h5.9V41.8z"/>
			<path class="st1" d="M216.5,40.3v9.2h3.1V51h-4.8V40.3H216.5z"/>
			<path class="st1" d="M228.9,46.9h3.1v1.4h-3.1V46.9z"/>
			<path class="st1" d="M245.6,40.3v6.9c0,0.8-0.1,1.4-0.2,1.8c-0.1,0.5-0.3,0.9-0.6,1.2c-0.5,0.6-1.3,0.9-2.1,0.9
				c-0.7,0-1.3-0.2-1.9-0.5l0.8-1.4c0.4,0.3,0.8,0.4,1.1,0.4c0.5,0,0.8-0.2,1-0.5c0.2-0.4,0.3-1,0.3-1.9v-6.9H245.6z"/>
			<path class="st1" d="M256.4,41.8h-4.3v2.6h4.2v1.5h-4.2v3.6h4.3V51h-5.9V40.3h5.9V41.8z"/>
			<path class="st1" d="M266.9,41.9l-1.3,0.8c-0.2-0.4-0.5-0.7-0.7-0.8c-0.2-0.1-0.5-0.2-0.9-0.2c-0.4,0-0.8,0.1-1.1,0.4
				c-0.3,0.2-0.4,0.6-0.4,0.9c0,0.5,0.4,0.9,1.2,1.3l1.1,0.4c0.9,0.4,1.5,0.8,1.9,1.3s0.6,1.1,0.6,1.9c0,1-0.3,1.8-1,2.4
				c-0.7,0.6-1.5,1-2.5,1c-0.9,0-1.7-0.3-2.3-0.8c-0.6-0.5-1-1.3-1.1-2.3l1.6-0.4c0.1,0.6,0.2,1.1,0.4,1.3c0.3,0.5,0.8,0.7,1.5,0.7
				c0.5,0,0.9-0.2,1.3-0.5c0.3-0.3,0.5-0.8,0.5-1.3c0-0.2,0-0.4-0.1-0.6c-0.1-0.2-0.1-0.3-0.3-0.5s-0.3-0.3-0.5-0.4
				c-0.2-0.1-0.4-0.2-0.7-0.4l-1-0.4c-1.5-0.6-2.2-1.5-2.2-2.7c0-0.8,0.3-1.5,0.9-2c0.6-0.5,1.4-0.8,2.3-0.8
				C265.3,40.1,266.3,40.7,266.9,41.9z"/>
			<path class="st1" d="M271,45.6c0-1.5,0.6-2.8,1.7-3.9c1.1-1.1,2.4-1.6,4-1.6c1.5,0,2.8,0.5,3.9,1.6c1.1,1.1,1.6,2.4,1.6,3.9
				c0,1.5-0.5,2.8-1.6,3.9c-1.1,1.1-2.4,1.6-4,1.6c-1.4,0-2.6-0.5-3.7-1.4C271.6,48.7,271,47.3,271,45.6z M272.6,45.6
				c0,1.2,0.4,2.2,1.2,2.9c0.8,0.8,1.7,1.1,2.7,1.1c1.1,0,2.1-0.4,2.8-1.2c0.8-0.8,1.2-1.7,1.2-2.9c0-1.1-0.4-2.1-1.1-2.9
				c-0.8-0.8-1.7-1.2-2.8-1.2c-1.1,0-2.1,0.4-2.8,1.2C273,43.6,272.6,44.5,272.6,45.6z"/>
			<path class="st1" d="M288.2,40.3v9.2h3.1V51h-4.8V40.3H288.2z"/>
			<path class="st1" d="M294.2,45.6c0-1.5,0.6-2.8,1.7-3.9c1.1-1.1,2.4-1.6,4-1.6c1.5,0,2.8,0.5,3.9,1.6c1.1,1.1,1.6,2.4,1.6,3.9
				c0,1.5-0.5,2.8-1.6,3.9c-1.1,1.1-2.4,1.6-4,1.6c-1.4,0-2.6-0.5-3.7-1.4C294.8,48.7,294.2,47.3,294.2,45.6z M295.8,45.6
				c0,1.2,0.4,2.2,1.2,2.9c0.8,0.8,1.7,1.1,2.7,1.1c1.1,0,2.1-0.4,2.8-1.2c0.8-0.8,1.2-1.7,1.2-2.9c0-1.1-0.4-2.1-1.1-2.9
				c-0.8-0.8-1.7-1.2-2.8-1.2c-1.1,0-2.1,0.4-2.8,1.2C296.2,43.6,295.8,44.5,295.8,45.6z"/>
		</g>
		<polygon class="st1" points="125.5,60 126.4,62.6 129.1,62.7 127,64.4 127.7,67 125.5,65.5 123.2,67 123.9,64.4 121.8,62.7 
			124.5,62.6 		"/>
		<polygon class="st1" points="166,60 167,62.6 169.7,62.7 167.6,64.4 168.3,67 166,65.5 163.8,67 164.5,64.4 162.4,62.7 
			165.1,62.6 		"/>
		<g>
			<g>
				<polygon class="st1" points="139.3,60.1 140.3,62.6 142.9,62.7 140.9,64.4 141.6,67 139.3,65.5 137.1,67 137.8,64.4 135.7,62.7 
					138.4,62.6 				"/>
				<polygon class="st1" points="152.7,60.1 153.6,62.6 156.3,62.7 154.2,64.4 154.9,67 152.7,65.5 150.4,67 151.1,64.4 149.1,62.7 
					151.7,62.6 				"/>
			</g>
		</g>
		<g>
			<path class="st1" d="M176.3,65.2l1.1-0.2c0.1,0.6,0.6,0.9,1.5,0.9c0.4,0,0.7-0.1,0.9-0.2c0.2-0.2,0.3-0.3,0.3-0.6
				c0-0.2,0-0.3-0.1-0.5c-0.1-0.1-0.3-0.3-0.6-0.3l-1.2-0.3c-0.4-0.1-0.7-0.2-0.9-0.4c-0.2-0.1-0.3-0.3-0.5-0.5
				c-0.1-0.2-0.2-0.5-0.2-0.8c0-0.5,0.2-1,0.6-1.3c0.4-0.3,0.9-0.5,1.6-0.5c0.5,0,1,0.1,1.4,0.3c0.4,0.2,0.7,0.6,0.8,1l-1,0.3
				c-0.2-0.5-0.5-0.7-1.1-0.7c-0.3,0-0.6,0.1-0.8,0.2c-0.2,0.1-0.3,0.3-0.3,0.5c0,0.3,0.3,0.6,0.9,0.7l1,0.3
				c0.6,0.2,1.1,0.4,1.3,0.7c0.2,0.3,0.3,0.6,0.3,1c0,0.6-0.2,1.1-0.7,1.4c-0.5,0.3-1,0.5-1.8,0.5c-0.6,0-1.1-0.1-1.6-0.4
				C176.7,66.1,176.4,65.7,176.3,65.2z"/>
		</g>
	</g>
</g>
<g id="Livello_2">
</g>
</svg>
