<svg id="Componente_24_23" data-name="Componente 24 – 23" xmlns="http://www.w3.org/2000/svg" width="40" height="40" viewBox="0 0 40 40">
  <g id="Raggruppa_3" data-name="Raggruppa 3">
    <path id="Tracciato_23" data-name="Tracciato 23" d="M160.218,337.21a9.1,9.1,0,0,1,9.086-9.124v-.428a9.16,9.16,0,0,1-9.069-9.216h-.37a9.16,9.16,0,0,1-9.069,9.216v.428a9.1,9.1,0,0,1,9.086,9.124Z" transform="translate(-140.092 -307.848)" fill="#4a5258"/>
    <path id="Tracciato_24" data-name="Tracciato 24" d="M158.127,305.683a20,20,0,1,1-20-20A20,20,0,0,1,158.127,305.683Zm-24.1,9.558h-5.52v5.491h19.156v-5.491h-5.521l5.521-5.488v5.488h5.491V296.086h-5.491v5.645l-5.629-5.645h5.629V290.6H128.507v5.491h5.63l-5.63,5.645v-5.645h-5.491v19.154h5.491v-5.488Z" transform="translate(-118.127 -285.685)" fill="#4a5258"/>
  </g>
</svg>
