<?xml version="1.0" encoding="utf-8"?>
<!-- Generator: Adobe Illustrator 26.0.2, SVG Export Plug-In . SVG Version: 6.00 Build 0)  -->
<svg version="1.1" xmlns="http://www.w3.org/2000/svg" xmlns:xlink="http://www.w3.org/1999/xlink" x="0px" y="0px"
	 viewBox="0 0 344 67" style="enable-background:new 0 0 344 67;" xml:space="preserve">
<style type="text/css">
	.st0{fill:#8C9396;}
</style>
<g id="Livello_1">
	<g>
		<g>
			<path class="st0" d="M12.5,0.9v25.5h10.2v7.2H4V0.9H12.5z"/>
			<path class="st0" d="M72.8,16.2L62.6,0.9h10.5l4.4,8.5L83,0.9h10.5L82.7,16.2l12.2,17.4H84.5L78,22.9l-7.7,10.7H60L72.8,16.2z"/>
			<path class="st0" d="M157,33.6h-10.6L138.3,21v12.6h-8.5V0.9H143c1.8,0,3.4,0.3,4.8,0.8c1.4,0.5,2.5,1.3,3.4,2.2
				c0.9,0.9,1.5,2,2,3.2c0.4,1.2,0.7,2.5,0.7,3.9c0,2.5-0.6,4.5-1.8,6c-1.2,1.5-3,2.6-5.3,3.1L157,33.6z M138.3,15.5h1.6
				c1.7,0,3-0.3,3.9-1c0.9-0.7,1.3-1.7,1.3-3c0-1.3-0.4-2.3-1.3-3c-0.9-0.7-2.2-1-3.9-1h-1.6V15.5z"/>
			<path class="st0" d="M222.8,11.8c-2-2.4-4.4-3.6-7.3-3.6c-1.3,0-2.5,0.2-3.5,0.7c-1.1,0.5-2,1.1-2.8,1.9
				c-0.8,0.8-1.4,1.7-1.8,2.8c-0.4,1.1-0.7,2.3-0.7,3.6c0,1.3,0.2,2.5,0.7,3.6c0.4,1.1,1.1,2.1,1.9,2.9c0.8,0.8,1.7,1.4,2.8,1.9
				c1.1,0.5,2.2,0.7,3.5,0.7c2.7,0,5.2-1.2,7.3-3.5v10.1l-0.9,0.3c-1.3,0.5-2.5,0.8-3.6,1c-1.1,0.2-2.2,0.3-3.3,0.3
				c-2.3,0-4.4-0.4-6.5-1.3c-2.1-0.9-3.9-2.1-5.5-3.6c-1.6-1.5-2.8-3.4-3.8-5.5c-1-2.1-1.4-4.4-1.4-7c0-2.5,0.5-4.8,1.4-6.9
				c0.9-2.1,2.2-3.9,3.8-5.4c1.6-1.5,3.4-2.7,5.5-3.6c2.1-0.9,4.3-1.3,6.5-1.3c1.3,0,2.6,0.1,3.8,0.4c1.3,0.3,2.6,0.7,4,1.3V11.8z"
				/>
			<path class="st0" d="M270.6,0.9v32.7h-8.5V0.9H270.6z"/>
			<path class="st0" d="M303.9,17.3c0-2.4,0.4-4.7,1.3-6.8c0.9-2.1,2.1-3.9,3.7-5.5c1.6-1.6,3.5-2.8,5.7-3.7
				c2.2-0.9,4.6-1.3,7.3-1.3c2.6,0,5.1,0.4,7.3,1.3c2.2,0.9,4.1,2.1,5.7,3.7c1.6,1.6,2.9,3.4,3.8,5.5c0.9,2.1,1.3,4.4,1.3,6.8
				c0,2.4-0.4,4.7-1.3,6.8c-0.9,2.1-2.1,3.9-3.8,5.5c-1.6,1.6-3.5,2.8-5.7,3.7c-2.2,0.9-4.7,1.3-7.3,1.3c-2.7,0-5.1-0.4-7.3-1.3
				c-2.2-0.9-4.1-2.1-5.7-3.7c-1.6-1.6-2.8-3.4-3.7-5.5C304.3,21.9,303.9,19.7,303.9,17.3z M312.8,17.3c0,1.3,0.2,2.5,0.7,3.6
				c0.5,1.1,1.2,2.1,2,2.9c0.8,0.8,1.8,1.4,2.9,1.9c1.1,0.4,2.3,0.7,3.5,0.7c1.2,0,2.4-0.2,3.5-0.7c1.1-0.4,2.1-1.1,2.9-1.9
				c0.9-0.8,1.5-1.8,2-2.9c0.5-1.1,0.7-2.3,0.7-3.6c0-1.3-0.2-2.5-0.7-3.6c-0.5-1.1-1.2-2.1-2-2.9c-0.9-0.8-1.8-1.4-2.9-1.9
				c-1.1-0.4-2.3-0.7-3.5-0.7c-1.2,0-2.4,0.2-3.5,0.7c-1.1,0.4-2.1,1.1-2.9,1.9c-0.8,0.8-1.5,1.8-2,2.9
				C313,14.8,312.8,16,312.8,17.3z"/>
		</g>
		<g>
			<path class="st0" d="M59,32.9L46,33.9l-0.4-0.5v-4.2h-0.2c-0.6,0.7-1.2,1.3-1.8,1.9c-0.6,0.6-1.3,1.2-2.1,1.7
				c-0.9,0.6-1.8,1-2.6,1.3c-0.8,0.3-2,0.4-3.6,0.4c-2.8,0-4.9-1-6.3-2.9c-1.5-2-2.2-4.7-2.2-8.3V8.9c0-0.8-0.1-1.5-0.4-2
				c-0.3-0.5-0.6-1-1.1-1.4c-0.4-0.3-0.8-0.6-1.4-0.7c-0.6-0.1-1.1-0.2-1.6-0.3V2.2l13.2-0.8l0.3,0.5v21.4c0,2.2,0.4,3.8,1.1,4.9
				c0.7,1.1,1.7,1.6,3,1.6c1.3,0,2.5-0.4,3.5-1.2c1-0.8,1.8-1.6,2.3-2.5V8.6c0-0.7-0.1-1.4-0.4-2c-0.2-0.6-0.6-1.1-1-1.4
				c-0.3-0.3-0.8-0.4-1.4-0.5c-0.6-0.1-1.2-0.1-1.9-0.2V2.2l13.3-0.8l0.4,0.5v24.8c0,0.8,0.1,1.4,0.4,1.9c0.3,0.5,0.6,1,1.1,1.3
				c0.3,0.3,0.8,0.4,1.3,0.5c0.6,0.1,1.1,0.2,1.6,0.2V32.9z"/>
			<path class="st0" d="M121.4,5.5c1.4,1.5,2.4,3.2,3.1,5.3c0.7,2.1,1.1,4.3,1.1,6.7c0,2.4-0.4,4.6-1.1,6.7
				c-0.7,2.1-1.7,3.9-3.1,5.4c-1.4,1.6-3.2,2.8-5.2,3.7c-2,0.9-4.3,1.3-6.9,1.3c-2.2,0-4.3-0.4-6.1-1.1c-1.9-0.8-3.5-1.9-5-3.4
				c-1.4-1.4-2.5-3.2-3.3-5.3c-0.8-2.1-1.2-4.5-1.2-7.1c0-2.6,0.4-4.9,1.1-6.9c0.7-2,1.8-3.8,3.2-5.4c1.4-1.5,3-2.7,5-3.5
				c2-0.8,4.2-1.2,6.6-1.2c2.6,0,4.8,0.4,6.7,1.2C118.3,2.8,120,4,121.4,5.5z M114.3,27.8c0.4-1.2,0.7-2.7,0.9-4.4
				c0.2-1.7,0.3-3.7,0.3-6c0-1.5-0.1-3.2-0.3-5.1c-0.2-1.9-0.5-3.5-0.8-4.6c-0.4-1.4-1-2.4-1.8-3.2c-0.8-0.8-1.8-1.2-2.9-1.2
				c-1.3,0-2.3,0.4-3.1,1.3c-0.8,0.8-1.4,1.9-1.8,3.2c-0.4,1.2-0.6,2.7-0.8,4.3c-0.1,1.6-0.2,3.3-0.2,5.1c0,2.3,0.1,4.3,0.2,5.8
				c0.1,1.5,0.4,3.1,0.9,4.6c0.4,1.3,1,2.4,1.8,3.2c0.8,0.8,1.8,1.2,3,1.2c1.1,0,2-0.4,2.8-1.1C113.3,30.2,113.9,29.2,114.3,27.8z"
				/>
			<path class="st0" d="M192.4,34.1H181c-0.3-0.4-0.7-0.9-1.2-1.6c-0.5-0.7-0.9-1.3-1.3-1.8c-1.4,1.5-2.7,2.6-4.1,3.2
				c-1.4,0.6-2.8,1-4.4,1c-2.4,0-4.4-0.8-6-2.3c-1.5-1.5-2.3-3.5-2.3-6c0-1.2,0.1-2.3,0.4-3.2c0.3-0.9,0.7-1.8,1.4-2.7
				c0.6-0.9,1.3-1.6,2.2-2.3c0.9-0.7,1.9-1.3,3-1.9c-1.2-1.7-2-3.2-2.4-4.4c-0.5-1.2-0.7-2.5-0.7-3.8c0-2.2,0.8-4,2.3-5.4
				c1.6-1.4,3.4-2.1,5.6-2.1c2,0,3.7,0.6,4.9,1.7c1.3,1.1,1.9,2.6,1.9,4.5c0,1.6-0.4,3.1-1.1,4.3c-0.8,1.3-2,2.5-3.8,3.7
				c1.4,2.1,2.5,3.7,3.3,4.8c0.8,1.1,1.8,2.5,3.1,4.2c0.8-1.4,1.4-2.7,1.8-3.9c0.4-1.2,0.6-2.2,0.6-3c0-0.5-0.3-0.8-0.9-1.1
				c-0.6-0.3-1.4-0.5-2.4-0.8v-1.7h10.9v1.7c-1.2,0.1-2.1,0.3-2.6,0.5c-0.6,0.2-1.1,0.6-1.7,1.3c-0.2,0.3-0.5,0.8-0.9,1.5
				c-0.3,0.7-0.7,1.4-1,2c-0.4,0.8-0.8,1.6-1.2,2.4c-0.4,0.9-0.9,1.7-1.6,2.7c1.2,1.6,2.2,2.9,2.9,3.7c0.8,0.8,1.4,1.4,1.9,1.7
				c0.6,0.3,1.3,0.6,2.1,0.8c0.9,0.2,1.7,0.3,2.5,0.4V34.1z M177.5,29.3c-1.1-1.5-2.4-3.3-3.8-5.4c-1.4-2-2.8-4-4-5.8
				c-0.7,0.8-1.2,1.7-1.5,2.8c-0.3,1.1-0.5,2.1-0.5,3.2c0,2,0.6,3.7,1.7,5c1.1,1.3,2.5,1.9,4.2,1.9c0.8,0,1.5-0.1,2.1-0.4
				C176.2,30.3,176.8,29.9,177.5,29.3z M177.4,7.4c0-1.3-0.3-2.4-0.8-3.2C176,3.4,175.3,3,174.4,3c-0.8,0-1.5,0.3-2,0.9
				c-0.5,0.6-0.8,1.5-0.8,2.5c0,0.9,0.2,1.9,0.7,3c0.5,1.1,1.2,2.5,2.2,4.1c1-0.8,1.7-1.7,2.2-2.8C177.1,9.6,177.4,8.5,177.4,7.4z"
				/>
			<path class="st0" d="M303,7.6c0,1.6-0.4,3.1-1.3,4.3c-0.9,1.2-2,1.8-3.4,1.8c-1.3,0-2.5-0.4-3.4-1.2c-0.9-0.8-1.4-2-1.4-3.5
				c0-0.7,0-1.3,0.1-1.7c0.1-0.4,0.2-0.8,0.2-1.2c-0.8,0-1.7,0.4-2.7,1c-0.9,0.6-1.8,1.5-2.5,2.5v17.7c0,0.8,0.1,1.4,0.3,1.9
				c0.2,0.5,0.5,0.9,1,1.2c0.4,0.2,1.1,0.4,2,0.6c0.9,0.2,1.6,0.3,2,0.3v2.3h-18.3v-2.3c0.5,0,0.9-0.1,1.4-0.2
				c0.5-0.1,0.9-0.2,1.2-0.3c0.6-0.2,1-0.6,1.2-1.1c0.2-0.5,0.3-1.1,0.3-1.9V9c0-0.8-0.2-1.5-0.5-2.1c-0.3-0.6-0.7-1.1-1.1-1.5
				c-0.3-0.3-0.7-0.5-1.2-0.6c-0.5-0.2-1.1-0.3-1.7-0.4V2.2l13.1-0.8l0.4,0.5v4.7h0.1c1.3-1.7,2.6-3.1,4-4c1.4-1,2.9-1.5,4.4-1.5
				c1.7,0,3.1,0.6,4.1,1.8C302.4,4,303,5.6,303,7.6z"/>
			<path class="st0" d="M258.2,32.9c-0.8,0.4-1.7,0.8-2.8,1.1c-1.1,0.3-2.2,0.5-3.5,0.5c-2.2,0-3.9-0.4-4.9-1.2
				c-1.1-0.8-1.8-1.9-2.2-3.4h-0.2c-0.6,0.7-1.2,1.4-1.8,1.9c-0.6,0.5-1.2,1-1.9,1.3c-0.9,0.5-1.7,0.8-2.5,1.1
				c-0.8,0.2-1.9,0.4-3.3,0.4c-2.1,0-3.9-0.7-5.4-2.2c-1.5-1.5-2.2-3.4-2.2-5.8c0-1.4,0.2-2.6,0.5-3.6c0.3-1,0.8-1.8,1.4-2.6
				c0.5-0.7,1.2-1.3,1.9-1.7c0.7-0.5,1.5-0.9,2.4-1.3c1.6-0.7,3.6-1.4,5.9-2.2c2.3-0.8,4-1.4,5-2v-3.1c0-0.5,0-1.2-0.1-2.1
				c-0.1-0.9-0.2-1.6-0.5-2.2c-0.3-0.7-0.7-1.3-1.2-1.7c-0.5-0.5-1.3-0.7-2.2-0.7c-0.8,0-1.5,0.1-2,0.4c-0.5,0.3-1,0.5-1.3,0.8
				c0.1,0.4,0.2,1.1,0.5,2c0.3,0.9,0.4,1.7,0.4,2.5c0,0.4-0.1,0.8-0.2,1.4c-0.2,0.5-0.4,1-0.7,1.3c-0.4,0.4-0.9,0.8-1.4,1
				c-0.5,0.2-1.3,0.4-2.4,0.4c-1.5,0-2.7-0.4-3.5-1.3c-0.8-0.9-1.2-2-1.2-3.4c0-1.2,0.4-2.3,1.2-3.2c0.8-1,1.8-1.7,3-2.4
				c1.2-0.6,2.5-1.1,4-1.5c1.5-0.4,2.9-0.5,4.2-0.5c1.8,0,3.4,0.1,4.9,0.4s2.8,0.8,4,1.5c1.1,0.8,2,1.8,2.7,3.3c0.7,1.4,1,3.3,1,5.6
				c0,2.4,0,5.3-0.1,8.6c-0.1,3.3-0.1,5.5-0.1,6.6c0,1,0.1,1.7,0.4,2.3c0.2,0.6,0.6,1,1.1,1.3c0.3,0.2,0.8,0.3,1.5,0.3
				c0.7,0,1.3,0,1.8,0V32.9z M244.6,16.2c-1,0.4-2,0.9-3.1,1.4c-1,0.5-1.8,1.1-2.5,1.7c-0.7,0.6-1.2,1.4-1.6,2.3
				c-0.4,0.9-0.6,2-0.6,3.3c0,1.7,0.3,2.9,1,3.6c0.7,0.8,1.5,1.1,2.4,1.1c1,0,1.8-0.2,2.5-0.7c0.6-0.5,1.2-1.1,1.7-1.8L244.6,16.2z"
				/>
		</g>
		<g>
			<path class="st0" d="M8.3,43.7v9.4H6.7v-9.4H4.2v-1.6h6.7v1.6H8.3z"/>
			<path class="st0" d="M19.4,46.5h4.7v-4.3h1.7v11h-1.7V48h-4.7v5.1h-1.7v-11h1.7V46.5z"/>
			<path class="st0" d="M39.9,43.7h-4.4v2.6h4.3v1.6h-4.3v3.7h4.4v1.6h-6.1v-11h6.1V43.7z"/>
			<path class="st0" d="M57.4,53.1v-11H59c0.7,0,1.3,0.1,1.8,0.2c0.4,0.1,0.8,0.3,1.1,0.6c0.3,0.3,0.6,0.6,0.7,1
				c0.2,0.4,0.3,0.8,0.3,1.3c0,0.8-0.3,1.5-0.9,2c0.6,0.2,1,0.5,1.4,1c0.3,0.5,0.5,1.1,0.5,1.7c0,0.9-0.3,1.6-0.9,2.2
				c-0.4,0.4-0.8,0.6-1.2,0.8c-0.5,0.1-1.1,0.2-1.9,0.2H57.4z M59,46.9h0.5c0.6,0,1.1-0.1,1.4-0.4c0.3-0.3,0.4-0.7,0.4-1.2
				c0-0.5-0.1-0.9-0.4-1.2c-0.3-0.3-0.7-0.4-1.3-0.4H59V46.9z M59,51.6h1c0.7,0,1.3-0.1,1.6-0.4c0.4-0.3,0.6-0.7,0.6-1.2
				c0-0.5-0.2-0.9-0.5-1.2c-0.3-0.3-1-0.5-1.9-0.5H59V51.6z"/>
			<path class="st0" d="M77.5,43.7h-4.4v2.6h4.3v1.6h-4.3v3.7h4.4v1.6h-6.1v-11h6.1V43.7z"/>
			<path class="st0" d="M91.5,50.5h-4.7l-1.2,2.7h-1.8l5.4-11.7l5.2,11.7h-1.8L91.5,50.5z M90.8,48.9l-1.6-3.7l-1.7,3.7H90.8z"/>
			<path class="st0" d="M108.8,42.8v2c-1-0.8-1.9-1.2-3-1.2c-1.1,0-2.1,0.4-2.8,1.2c-0.8,0.8-1.2,1.8-1.2,3c0,1.2,0.4,2.1,1.2,2.9
				c0.8,0.8,1.7,1.2,2.9,1.2c0.6,0,1.1-0.1,1.5-0.3c0.2-0.1,0.5-0.2,0.7-0.4c0.2-0.2,0.5-0.4,0.8-0.6v2c-0.9,0.5-1.9,0.8-3,0.8
				c-1.6,0-2.9-0.5-4-1.6c-1.1-1.1-1.7-2.4-1.7-4c0-1.4,0.5-2.6,1.4-3.7c1.1-1.3,2.6-2,4.4-2C107,42,107.9,42.2,108.8,42.8z"/>
			<path class="st0" d="M118.3,46.5h4.7v-4.3h1.7v11H123V48h-4.7v5.1h-1.7v-11h1.7V46.5z"/>
			<path class="st0" d="M146.4,48.5l3.4,4.7h-2l-3.1-4.5h-0.3v4.5h-1.7v-11h1.9c1.4,0,2.5,0.3,3.1,0.8c0.7,0.6,1.1,1.4,1.1,2.4
				c0,0.8-0.2,1.4-0.7,2C147.7,47.9,147.1,48.3,146.4,48.5z M144.3,47.2h0.5c1.6,0,2.4-0.6,2.4-1.8c0-1.1-0.8-1.7-2.3-1.7h-0.6V47.2
				z"/>
			<path class="st0" d="M162.9,43.7h-4.4v2.6h4.3v1.6h-4.3v3.7h4.4v1.6h-6.1v-11h6.1V43.7z"/>
			<path class="st0" d="M176.7,43.8l-1.3,0.8c-0.3-0.4-0.5-0.7-0.7-0.9c-0.2-0.2-0.5-0.2-0.9-0.2c-0.5,0-0.8,0.1-1.1,0.4
				c-0.3,0.3-0.5,0.6-0.5,1c0,0.5,0.4,1,1.2,1.3l1.1,0.4c0.9,0.4,1.5,0.8,2,1.3c0.4,0.5,0.6,1.2,0.6,1.9c0,1-0.3,1.8-1,2.5
				c-0.7,0.7-1.5,1-2.5,1c-1,0-1.7-0.3-2.4-0.8c-0.6-0.6-1-1.4-1.1-2.4l1.7-0.4c0.1,0.6,0.2,1.1,0.4,1.3c0.3,0.5,0.8,0.7,1.5,0.7
				c0.5,0,0.9-0.2,1.3-0.5s0.5-0.8,0.5-1.3c0-0.2,0-0.4-0.1-0.6c-0.1-0.2-0.2-0.3-0.3-0.5c-0.1-0.1-0.3-0.3-0.5-0.4
				c-0.2-0.1-0.4-0.3-0.7-0.4l-1.1-0.4c-1.5-0.6-2.3-1.6-2.3-2.8c0-0.8,0.3-1.5,0.9-2.1c0.6-0.6,1.4-0.8,2.4-0.8
				C175,42,175.9,42.6,176.7,43.8z"/>
			<path class="st0" d="M183.8,47.6c0-1.5,0.6-2.9,1.7-4c1.1-1.1,2.5-1.7,4.1-1.7c1.6,0,2.9,0.6,4,1.7c1.1,1.1,1.7,2.5,1.7,4
				c0,1.6-0.6,2.9-1.7,4c-1.1,1.1-2.5,1.7-4.1,1.7c-1.4,0-2.7-0.5-3.8-1.5C184.4,50.8,183.8,49.4,183.8,47.6z M185.5,47.6
				c0,1.2,0.4,2.2,1.2,3c0.8,0.8,1.7,1.2,2.8,1.2c1.2,0,2.1-0.4,2.9-1.2c0.8-0.8,1.2-1.8,1.2-2.9c0-1.2-0.4-2.2-1.2-2.9
				c-0.8-0.8-1.7-1.2-2.9-1.2c-1.1,0-2.1,0.4-2.9,1.2C185.9,45.5,185.5,46.5,185.5,47.6z"/>
			<path class="st0" d="M206.5,48.5l3.4,4.7h-2l-3.1-4.5h-0.3v4.5h-1.7v-11h1.9c1.4,0,2.5,0.3,3.1,0.8c0.7,0.6,1.1,1.4,1.1,2.4
				c0,0.8-0.2,1.4-0.7,2C207.8,47.9,207.2,48.3,206.5,48.5z M204.4,47.2h0.5c1.6,0,2.4-0.6,2.4-1.8c0-1.1-0.8-1.7-2.3-1.7h-0.6V47.2
				z"/>
			<path class="st0" d="M219.8,43.7v9.4h-1.7v-9.4h-2.5v-1.6h6.7v1.6H219.8z"/>
			<path class="st0" d="M237.8,48.9h3.2v1.4h-3.2V48.9z"/>
			<path class="st0" d="M261,42.2v7.1c0,0.8-0.1,1.5-0.2,1.9c-0.1,0.5-0.3,0.9-0.6,1.2c-0.6,0.6-1.3,1-2.2,1c-0.7,0-1.3-0.2-1.9-0.5
				l0.8-1.4c0.4,0.3,0.8,0.4,1.1,0.4c0.5,0,0.8-0.2,1-0.6c0.2-0.4,0.3-1,0.3-2v-7.1H261z"/>
			<path class="st0" d="M275.1,43.7h-4.4v2.6h4.3v1.6h-4.3v3.7h4.4v1.6H269v-11h6.1V43.7z"/>
			<path class="st0" d="M288.9,43.8l-1.3,0.8c-0.3-0.4-0.5-0.7-0.7-0.9c-0.2-0.2-0.5-0.2-0.9-0.2c-0.5,0-0.8,0.1-1.1,0.4
				c-0.3,0.3-0.5,0.6-0.5,1c0,0.5,0.4,1,1.2,1.3l1.1,0.4c0.9,0.4,1.5,0.8,2,1.3c0.4,0.5,0.6,1.2,0.6,1.9c0,1-0.3,1.8-1,2.5
				c-0.7,0.7-1.5,1-2.5,1c-1,0-1.7-0.3-2.4-0.8c-0.6-0.6-1-1.4-1.1-2.4l1.7-0.4c0.1,0.6,0.2,1.1,0.4,1.3c0.3,0.5,0.8,0.7,1.5,0.7
				c0.5,0,0.9-0.2,1.3-0.5c0.3-0.3,0.5-0.8,0.5-1.3c0-0.2,0-0.4-0.1-0.6c-0.1-0.2-0.2-0.3-0.3-0.5c-0.1-0.1-0.3-0.3-0.5-0.4
				c-0.2-0.1-0.4-0.3-0.7-0.4l-1.1-0.4c-1.5-0.6-2.3-1.6-2.3-2.8c0-0.8,0.3-1.5,0.9-2.1c0.6-0.6,1.4-0.8,2.4-0.8
				C287.2,42,288.2,42.6,288.9,43.8z"/>
			<path class="st0" d="M296,47.6c0-1.5,0.6-2.9,1.7-4c1.1-1.1,2.5-1.7,4.1-1.7c1.6,0,2.9,0.6,4,1.7c1.1,1.1,1.7,2.5,1.7,4
				c0,1.6-0.6,2.9-1.7,4c-1.1,1.1-2.5,1.7-4.1,1.7c-1.4,0-2.7-0.5-3.8-1.5C296.6,50.8,296,49.4,296,47.6z M297.7,47.6
				c0,1.2,0.4,2.2,1.2,3c0.8,0.8,1.7,1.2,2.8,1.2c1.2,0,2.1-0.4,2.9-1.2c0.8-0.8,1.2-1.8,1.2-2.9c0-1.2-0.4-2.2-1.2-2.9
				c-0.8-0.8-1.7-1.2-2.9-1.2c-1.1,0-2.1,0.4-2.9,1.2C298.1,45.5,297.7,46.5,297.7,47.6z"/>
			<path class="st0" d="M316.6,42.2v9.4h3.2v1.6H315v-11H316.6z"/>
			<path class="st0" d="M325.9,47.6c0-1.5,0.6-2.9,1.7-4c1.1-1.1,2.5-1.7,4.1-1.7c1.6,0,2.9,0.6,4,1.7c1.1,1.1,1.7,2.5,1.7,4
				c0,1.6-0.6,2.9-1.7,4c-1.1,1.1-2.5,1.7-4.1,1.7c-1.4,0-2.7-0.5-3.8-1.5C326.5,50.8,325.9,49.4,325.9,47.6z M327.5,47.6
				c0,1.2,0.4,2.2,1.2,3c0.8,0.8,1.7,1.2,2.8,1.2c1.2,0,2.1-0.4,2.9-1.2c0.8-0.8,1.2-1.8,1.2-2.9c0-1.2-0.4-2.2-1.2-2.9
				c-0.8-0.8-1.7-1.2-2.9-1.2c-1.1,0-2.1,0.4-2.9,1.2C327.9,45.5,327.5,46.5,327.5,47.6z"/>
		</g>
		<polygon class="st0" points="141.2,59.9 142.2,62.4 145,62.6 142.8,64.3 143.5,67 141.2,65.5 138.9,67 139.6,64.3 137.4,62.6 
			140.2,62.4 		"/>
		<polygon class="st0" points="182.8,59.9 183.8,62.4 186.6,62.6 184.4,64.3 185.1,67 182.8,65.5 180.5,67 181.2,64.3 179.1,62.6 
			181.8,62.4 		"/>
		<g>
			<g>
				<polygon class="st0" points="155.4,59.9 156.4,62.5 159.1,62.6 157,64.3 157.7,67 155.4,65.5 153.1,67 153.8,64.3 151.7,62.6 
					154.4,62.5 				"/>
				<polygon class="st0" points="169.1,59.9 170.1,62.5 172.8,62.6 170.7,64.3 171.4,67 169.1,65.5 166.8,67 167.5,64.3 165.4,62.6 
					168.1,62.5 				"/>
			</g>
		</g>
		<g>
			<path class="st0" d="M193.3,65.1l1.1-0.2c0.1,0.6,0.6,0.9,1.5,0.9c0.4,0,0.7-0.1,0.9-0.2c0.2-0.2,0.3-0.4,0.3-0.6
				c0-0.2,0-0.3-0.1-0.5c-0.1-0.1-0.3-0.3-0.6-0.3l-1.2-0.3c-0.4-0.1-0.7-0.2-0.9-0.4c-0.2-0.1-0.4-0.3-0.5-0.6
				c-0.1-0.3-0.2-0.5-0.2-0.8c0-0.6,0.2-1,0.6-1.3c0.4-0.3,0.9-0.5,1.6-0.5c0.5,0,1,0.1,1.4,0.4c0.4,0.2,0.7,0.6,0.8,1l-1.1,0.3
				c-0.2-0.5-0.6-0.7-1.2-0.7c-0.4,0-0.6,0.1-0.8,0.2c-0.2,0.1-0.3,0.3-0.3,0.6c0,0.4,0.3,0.6,0.9,0.8l1.1,0.3
				c0.6,0.2,1.1,0.4,1.3,0.7c0.2,0.3,0.3,0.7,0.3,1.1c0,0.6-0.2,1.1-0.7,1.5c-0.5,0.4-1.1,0.5-1.8,0.5c-0.6,0-1.2-0.1-1.6-0.4
				C193.8,66.1,193.5,65.7,193.3,65.1z"/>
		</g>
	</g>
</g>
<g id="Livello_2">
</g>
</svg>
