<?xml version="1.0" encoding="utf-8"?>
<!-- Generator: Adobe Illustrator 26.0.2, SVG Export Plug-In . SVG Version: 6.00 Build 0)  -->
<svg version="1.1" xmlns="http://www.w3.org/2000/svg" xmlns:xlink="http://www.w3.org/1999/xlink" x="0px" y="0px"
	 viewBox="0 0 344 67" style="enable-background:new 0 0 344 67;" xml:space="preserve">
<style type="text/css">
	.st0{fill:#8C9396;}
</style>
<g id="Livello_1">
	<g>
		<g>
			<path class="st0" d="M107.2,60.3v4.2c0,0.5,0,0.9-0.1,1.1c-0.1,0.3-0.2,0.5-0.4,0.7c-0.3,0.4-0.8,0.6-1.3,0.6
				c-0.4,0-0.8-0.1-1.2-0.3l0.5-0.8c0.2,0.2,0.5,0.2,0.7,0.2c0.3,0,0.5-0.1,0.6-0.3c0.1-0.2,0.2-0.6,0.2-1.2v-4.2H107.2z"/>
			<path class="st0" d="M118.4,61.2h-2.6v1.6h2.6v0.9h-2.6v2.2h2.6v0.9h-3.6v-6.6h3.6V61.2z"/>
			<path class="st0" d="M129.6,61.3l-0.8,0.5c-0.2-0.3-0.3-0.4-0.4-0.5c-0.1-0.1-0.3-0.1-0.5-0.1c-0.3,0-0.5,0.1-0.7,0.2
				c-0.2,0.2-0.3,0.3-0.3,0.6c0,0.3,0.2,0.6,0.7,0.8l0.7,0.3c0.5,0.2,0.9,0.5,1.2,0.8c0.2,0.3,0.4,0.7,0.4,1.1
				c0,0.6-0.2,1.1-0.6,1.5c-0.4,0.4-0.9,0.6-1.5,0.6c-0.6,0-1-0.2-1.4-0.5c-0.4-0.3-0.6-0.8-0.7-1.4l1-0.2c0,0.4,0.1,0.7,0.2,0.8
				c0.2,0.3,0.5,0.4,0.9,0.4c0.3,0,0.6-0.1,0.8-0.3c0.2-0.2,0.3-0.5,0.3-0.8c0-0.1,0-0.2-0.1-0.4c0-0.1-0.1-0.2-0.2-0.3
				c-0.1-0.1-0.2-0.2-0.3-0.3c-0.1-0.1-0.3-0.2-0.4-0.2l-0.6-0.3c-0.9-0.4-1.3-0.9-1.3-1.7c0-0.5,0.2-0.9,0.6-1.2
				c0.4-0.3,0.8-0.5,1.4-0.5C128.5,60.2,129.1,60.6,129.6,61.3z"/>
			<path class="st0" d="M136.7,63.6c0-0.9,0.3-1.7,1-2.4c0.7-0.7,1.5-1,2.4-1c0.9,0,1.7,0.3,2.4,1c0.7,0.7,1,1.5,1,2.4
				c0,0.9-0.3,1.7-1,2.4c-0.7,0.7-1.5,1-2.5,1c-0.8,0-1.6-0.3-2.3-0.9C137.1,65.5,136.7,64.6,136.7,63.6z M137.7,63.6
				c0,0.7,0.2,1.3,0.7,1.8c0.5,0.5,1,0.7,1.7,0.7c0.7,0,1.3-0.2,1.7-0.7c0.5-0.5,0.7-1.1,0.7-1.8c0-0.7-0.2-1.3-0.7-1.8
				c-0.5-0.5-1-0.7-1.7-0.7c-0.7,0-1.3,0.2-1.7,0.7C137.9,62.3,137.7,62.9,137.7,63.6z"/>
			<path class="st0" d="M151.9,60.3v5.6h1.9v0.9h-2.9v-6.6H151.9z"/>
			<path class="st0" d="M160.3,63.6c0-0.9,0.3-1.7,1-2.4c0.7-0.7,1.5-1,2.4-1c0.9,0,1.7,0.3,2.4,1c0.7,0.7,1,1.5,1,2.4
				c0,0.9-0.3,1.7-1,2.4c-0.7,0.7-1.5,1-2.5,1c-0.8,0-1.6-0.3-2.3-0.9C160.6,65.5,160.3,64.6,160.3,63.6z M161.3,63.6
				c0,0.7,0.2,1.3,0.7,1.8c0.5,0.5,1,0.7,1.7,0.7c0.7,0,1.3-0.2,1.7-0.7c0.5-0.5,0.7-1.1,0.7-1.8c0-0.7-0.2-1.3-0.7-1.8
				c-0.5-0.5-1-0.7-1.7-0.7c-0.7,0-1.3,0.2-1.7,0.7C161.5,62.3,161.3,62.9,161.3,63.6z"/>
		</g>
		<g>
			<path class="st0" d="M104.9,50c0,0.1,0,0.2,0,0.3c0,0.1,0,0.2,0,0.3c0,0.4,0.1,0.8,0.2,1.1c0.1,0.3,0.3,0.6,0.5,0.8
				c0.2,0.2,0.5,0.3,0.8,0.4c0.3,0.1,0.7,0.1,1.1,0.1c0.4,0,0.8-0.1,1.1-0.2c0.3-0.1,0.7-0.3,0.9-0.5c0.3-0.2,0.5-0.5,0.6-0.8
				c0.2-0.3,0.2-0.7,0.2-1.1c0-0.3,0-0.5-0.1-0.7c-0.1-0.2-0.2-0.4-0.3-0.6c-0.1-0.2-0.3-0.4-0.5-0.5c-0.2-0.2-0.4-0.3-0.6-0.4
				c-0.2-0.1-0.4-0.3-0.7-0.4c-0.2-0.1-0.5-0.3-0.7-0.4c-0.2-0.1-0.5-0.3-0.7-0.4c-0.2-0.1-0.5-0.3-0.7-0.5
				c-0.2-0.2-0.4-0.3-0.6-0.5c-0.2-0.2-0.4-0.4-0.5-0.6c-0.1-0.2-0.2-0.5-0.3-0.8c-0.1-0.3-0.1-0.6-0.1-0.9c0-0.4,0.1-0.8,0.2-1.2
				c0.1-0.4,0.3-0.7,0.4-1c0.2-0.3,0.4-0.6,0.7-0.8c0.3-0.2,0.6-0.4,0.9-0.6c0.3-0.2,0.7-0.3,1-0.4c0.4-0.1,0.7-0.1,1.1-0.1
				c0.2,0,0.4,0,0.6,0c0.2,0,0.4,0.1,0.6,0.1c0.2,0,0.4,0.1,0.6,0.2c0.2,0.1,0.3,0.1,0.5,0.2c0.1,0.1,0.2,0.2,0.3,0.3
				c0.1,0.1,0.1,0.2,0.1,0.3c0,0.1,0,0.3,0,0.4c0,0.2,0,0.4,0,0.6c0,0.2,0,0.5,0,0.7c0,0.3,0,0.5,0,0.8l-0.6,0c0-0.1,0-0.3,0-0.4
				c0-0.4-0.1-0.7-0.2-1c-0.1-0.3-0.3-0.5-0.5-0.7c-0.2-0.2-0.5-0.3-0.8-0.4c-0.3-0.1-0.6-0.2-1-0.2c-0.4,0-0.7,0.1-1,0.2
				c-0.3,0.1-0.6,0.3-0.8,0.5c-0.2,0.2-0.4,0.5-0.5,0.8c-0.1,0.3-0.2,0.6-0.2,1c0,0.3,0,0.5,0.1,0.8c0.1,0.2,0.2,0.5,0.3,0.6
				c0.1,0.2,0.3,0.4,0.5,0.5c0.2,0.2,0.4,0.3,0.6,0.5c0.2,0.1,0.4,0.3,0.7,0.4c0.2,0.1,0.5,0.3,0.7,0.4c0.2,0.1,0.5,0.3,0.7,0.4
				c0.2,0.1,0.5,0.3,0.7,0.4c0.2,0.2,0.4,0.3,0.6,0.5c0.2,0.2,0.4,0.4,0.5,0.6c0.1,0.2,0.2,0.5,0.3,0.7c0.1,0.3,0.1,0.6,0.1,0.9
				c0,0.5-0.1,1-0.2,1.4c-0.1,0.4-0.3,0.8-0.6,1.1c-0.2,0.3-0.5,0.6-0.9,0.8c-0.3,0.2-0.7,0.4-1,0.5c-0.3,0.1-0.7,0.2-1,0.3
				c-0.3,0.1-0.7,0.1-1,0.1c-0.4,0-0.8,0-1.1-0.1c-0.3-0.1-0.6-0.1-0.9-0.2c-0.3-0.1-0.5-0.2-0.6-0.3c-0.1-0.1-0.2-0.2-0.2-0.3
				c0-0.3,0-0.6,0-1.1c0-0.5,0-1.1,0.1-1.8L104.9,50z"/>
			<path class="st0" d="M112.4,45.7c0.3-0.1,0.5-0.2,0.8-0.3c0.3-0.1,0.5-0.2,0.7-0.2c0.2-0.1,0.4-0.1,0.6-0.1c0.2,0,0.3,0,0.4,0
				c0.2,0,0.4,0.1,0.5,0.2c0.1,0.1,0.2,0.4,0.2,0.7c0,0.1,0,0.2,0,0.5c0,0.3,0,0.6-0.1,1c0,0.4-0.1,0.8-0.1,1.3c0,0.5-0.1,1-0.1,1.6
				l0,0c0.3-1,0.6-1.8,0.9-2.5c0.3-0.7,0.6-1.2,1-1.6c0.3-0.4,0.6-0.7,1-0.9c0.3-0.2,0.6-0.3,0.9-0.3c0.3,0,0.5,0.1,0.7,0.2
				c0.2,0.1,0.3,0.3,0.5,0.5c0.1,0.2,0.2,0.5,0.3,0.7c0.1,0.3,0.1,0.6,0.1,0.8c0,0.2,0,0.5,0,0.8c0,0.3,0,0.5-0.1,0.8
				c0,0.3,0,0.5-0.1,0.8c0,0.2,0,0.5-0.1,0.6l0,0c0.3-1,0.6-1.9,0.9-2.6c0.3-0.7,0.6-1.2,1-1.7c0.3-0.4,0.7-0.7,1-0.9
				c0.3-0.2,0.6-0.3,1-0.3c0.2,0,0.4,0,0.6,0.1c0.2,0.1,0.3,0.2,0.5,0.4c0.1,0.2,0.3,0.4,0.3,0.7c0.1,0.3,0.1,0.6,0.1,1
				c0,0.1,0,0.3,0,0.5c0,0.2,0,0.4,0,0.7c0,0.2,0,0.5-0.1,0.8c0,0.3,0,0.5-0.1,0.8c0,0.3,0,0.5,0,0.8c0,0.2,0,0.4,0,0.6
				c0,0.3,0,0.6,0,0.8c0,0.2,0.1,0.3,0.1,0.5c0.1,0.1,0.1,0.2,0.2,0.2c0.1,0,0.2,0.1,0.4,0.1c0.2,0,0.4,0,0.6-0.1
				c0.2-0.1,0.4-0.1,0.7-0.2l0.1,0.3c-0.1,0.1-0.3,0.2-0.5,0.3c-0.2,0.1-0.4,0.2-0.7,0.3c-0.2,0.1-0.5,0.2-0.7,0.2
				c-0.2,0.1-0.4,0.1-0.6,0.1c-0.2,0-0.4-0.1-0.5-0.2c-0.1-0.1-0.2-0.3-0.3-0.5c-0.1-0.2-0.1-0.4-0.1-0.7c0-0.3,0-0.5,0-0.8
				c0-0.4,0-0.8,0-1.2c0-0.4,0.1-0.8,0.1-1.1c0-0.4,0.1-0.7,0.1-1c0-0.3,0-0.5,0-0.7c0-0.4-0.1-0.7-0.2-1c-0.2-0.2-0.4-0.3-0.6-0.3
				c-0.2,0-0.4,0.1-0.6,0.3c-0.2,0.2-0.5,0.5-0.7,0.8c-0.2,0.3-0.4,0.7-0.7,1.2c-0.2,0.5-0.4,0.9-0.6,1.5c-0.2,0.5-0.3,1.1-0.4,1.7
				c-0.1,0.6-0.2,1.2-0.2,1.7l-1.2,0.2l-0.1,0c0-0.8,0.1-1.6,0.1-2.2c0-0.6,0.1-1.2,0.1-1.7c0-0.5,0.1-0.9,0.1-1.2
				c0-0.3,0-0.6,0-0.8c0-0.4-0.1-0.8-0.2-1c-0.2-0.2-0.3-0.3-0.6-0.3c-0.2,0-0.4,0.1-0.7,0.3c-0.2,0.2-0.5,0.4-0.7,0.8
				c-0.2,0.3-0.4,0.7-0.6,1.2c-0.2,0.4-0.4,0.9-0.6,1.5c-0.2,0.5-0.3,1.1-0.4,1.7c-0.1,0.6-0.2,1.2-0.2,1.7l-1.2,0.2l-0.1,0
				c0-0.4,0.1-0.8,0.1-1.2c0-0.4,0.1-0.9,0.1-1.3c0-0.5,0-0.9,0.1-1.3c0-0.4,0-0.9,0-1.3c0-0.4,0-0.7,0-1c0-0.3,0-0.5,0-0.7
				c0-0.2,0-0.3,0-0.4c0-0.1-0.1-0.2-0.1-0.3c0-0.1-0.1-0.1-0.2-0.1c-0.1,0-0.2,0-0.3,0c-0.1,0-0.3,0-0.5,0.1
				c-0.2,0-0.4,0.1-0.7,0.2L112.4,45.7z"/>
			<path class="st0" d="M133.2,47.4c0-0.3-0.1-0.6-0.2-0.8c-0.1-0.2-0.2-0.4-0.4-0.6c-0.2-0.1-0.4-0.3-0.6-0.3
				c-0.2-0.1-0.4-0.1-0.6-0.1c-0.3,0-0.5,0-0.7,0.1c-0.2,0.1-0.3,0.1-0.5,0.2c-0.1,0.1-0.2,0.2-0.3,0.4c-0.1,0.1-0.1,0.3-0.1,0.5
				c0,0.2,0,0.4,0.1,0.6c0.1,0.2,0.2,0.4,0.3,0.6l0,0.1c-0.2,0.1-0.5,0.2-0.7,0.2c-0.1,0-0.3,0-0.4-0.1c-0.1,0-0.2-0.1-0.3-0.2
				c-0.1-0.1-0.2-0.2-0.2-0.3c0-0.1-0.1-0.2-0.1-0.4c0-0.2,0.1-0.4,0.2-0.7c0.1-0.2,0.3-0.4,0.4-0.6c0.2-0.2,0.4-0.3,0.6-0.5
				c0.2-0.1,0.5-0.3,0.8-0.3c0.3-0.1,0.5-0.2,0.8-0.2c0.3,0,0.5-0.1,0.7-0.1c0.4,0,0.8,0.1,1.1,0.2c0.3,0.1,0.5,0.3,0.7,0.5
				c0.2,0.2,0.3,0.5,0.4,0.8c0.1,0.3,0.1,0.6,0.1,1c0,0.3,0,0.5,0,0.9c0,0.3,0,0.6-0.1,1c0,0.3-0.1,0.7-0.1,1.1c0,0.4,0,0.7,0,1.1
				c0,0.6,0.1,1,0.3,1.3c0.2,0.3,0.5,0.4,0.8,0.4c0.3,0,0.6-0.1,1-0.3l0.2,0.3c-0.3,0.3-0.6,0.5-0.9,0.6c-0.3,0.1-0.6,0.2-1,0.2
				c-0.3,0-0.5,0-0.7-0.1c-0.2-0.1-0.4-0.2-0.6-0.4c-0.2-0.2-0.3-0.4-0.4-0.6c-0.1-0.3-0.1-0.6-0.1-0.9c0-0.1,0-0.2,0-0.3
				c0-0.1,0-0.2,0-0.3h0c-0.2,0.3-0.4,0.7-0.6,1c-0.2,0.3-0.5,0.6-0.7,0.9c-0.3,0.3-0.5,0.5-0.8,0.6c-0.3,0.2-0.6,0.2-0.9,0.2
				c-0.3,0-0.5,0-0.7-0.1c-0.2-0.1-0.4-0.2-0.6-0.4c-0.2-0.2-0.3-0.4-0.4-0.6c-0.1-0.2-0.1-0.5-0.1-0.7c0-0.3,0.1-0.7,0.2-0.9
				c0.1-0.3,0.3-0.5,0.5-0.8c0.2-0.2,0.5-0.4,0.8-0.6c0.3-0.2,0.7-0.3,1-0.4c0.4-0.1,0.8-0.2,1.2-0.2c0.4-0.1,0.8-0.1,1.3-0.1
				c0-0.2,0.1-0.5,0.1-0.7C133.2,48,133.2,47.7,133.2,47.4z M129.6,51.5c0,0.2,0,0.3,0.1,0.4c0,0.1,0.1,0.3,0.2,0.4
				c0.1,0.1,0.2,0.2,0.3,0.3c0.1,0.1,0.2,0.1,0.4,0.1c0.2,0,0.4,0,0.5-0.1c0.2-0.1,0.4-0.2,0.6-0.3c0.2-0.1,0.4-0.3,0.5-0.5
				c0.2-0.2,0.3-0.4,0.4-0.7c0.1-0.2,0.2-0.5,0.3-0.8c0.1-0.3,0.1-0.5,0.2-0.8c-0.3,0-0.6,0-0.9,0.1c-0.3,0-0.6,0.1-0.8,0.1
				c-0.3,0.1-0.5,0.1-0.7,0.2c-0.2,0.1-0.4,0.2-0.6,0.4c-0.2,0.1-0.3,0.3-0.4,0.5C129.6,51,129.6,51.2,129.6,51.5z"/>
			<path class="st0" d="M138,53.7L138,53.7c-0.1-0.4,0-0.8,0-1.2c0-0.4,0.1-0.9,0.1-1.3c0-0.5,0-0.9,0.1-1.3c0-0.4,0-0.9,0-1.3
				c0-0.4,0-0.7,0-1c0-0.3,0-0.5,0-0.7c0-0.1,0-0.3,0-0.4c0-0.1,0-0.2-0.1-0.3c0-0.1-0.1-0.1-0.2-0.2c-0.1,0-0.2,0-0.3,0
				c-0.1,0-0.1,0-0.2,0c-0.1,0-0.1,0-0.2,0c-0.1,0-0.2,0-0.3,0.1c-0.1,0-0.2,0.1-0.4,0.1l-0.1-0.4c0.7-0.2,1.2-0.4,1.6-0.5
				c0.4-0.1,0.7-0.1,0.8-0.1c0.3,0,0.4,0.1,0.6,0.2c0.1,0.2,0.2,0.4,0.2,0.7c0,0,0,0.1,0,0.2c0,0.1,0,0.3,0,0.5c0,0.2,0,0.5-0.1,0.7
				c0,0.3,0,0.6-0.1,0.9c0,0.3-0.1,0.7-0.1,1c0,0.4-0.1,0.7-0.1,1.1l0.1,0c0.2-0.8,0.4-1.5,0.6-2.2c0.2-0.7,0.5-1.2,0.8-1.7
				c0.3-0.5,0.6-0.9,1-1.2c0.4-0.3,0.7-0.4,1.2-0.4c0.1,0,0.3,0,0.4,0.1c0.1,0,0.2,0.1,0.3,0.2c0.1,0.1,0.2,0.2,0.2,0.3
				c0.1,0.1,0.1,0.2,0.1,0.4c0,0.2,0,0.3-0.1,0.5c-0.1,0.2-0.2,0.3-0.4,0.4h0c-0.2-0.1-0.3-0.2-0.5-0.3c-0.1-0.1-0.3-0.1-0.5-0.1
				c-0.2,0-0.3,0-0.5,0.1c-0.2,0.1-0.3,0.2-0.5,0.3c-0.2,0.2-0.4,0.5-0.6,0.8c-0.2,0.3-0.4,0.7-0.5,1.1c-0.2,0.4-0.3,0.8-0.4,1.3
				c-0.1,0.5-0.2,0.9-0.3,1.3c-0.1,0.4-0.2,0.8-0.2,1.2c-0.1,0.4-0.1,0.7-0.1,0.9L138,53.7z"/>
			<path class="st0" d="M147.4,40.7c-0.2,0.7-0.3,1.5-0.4,2.3c-0.1,0.8-0.2,1.6-0.3,2.4c0.2,0,0.4,0,0.5,0c0.2,0,0.3,0,0.5,0
				c0.2,0,0.3,0,0.4,0c0.1,0,0.2,0,0.3,0c0.4,0,0.7,0,0.9-0.1c0,0.1,0,0.1,0,0.2c0,0.1,0,0.1,0,0.2c0,0.2-0.1,0.3-0.2,0.3
				c-0.1,0.1-0.3,0.1-0.6,0.1c-0.3,0-0.5,0-0.9,0c-0.3,0-0.7-0.1-1.1-0.1c0,0.4-0.1,0.8-0.1,1.2c0,0.4-0.1,0.8-0.1,1.1
				c0,0.4,0,0.7,0,1c0,0.3,0,0.6,0,0.8c0,0.4,0,0.8,0.1,1.1c0,0.3,0.1,0.6,0.2,0.8c0.1,0.2,0.3,0.4,0.5,0.5c0.2,0.1,0.4,0.2,0.7,0.2
				c0.2,0,0.5,0,0.7-0.1c0.3-0.1,0.6-0.2,0.9-0.4c0.1,0.1,0.2,0.2,0.2,0.4c-0.2,0.2-0.5,0.3-0.7,0.4c-0.2,0.1-0.5,0.2-0.7,0.3
				c-0.2,0.1-0.5,0.2-0.7,0.2c-0.2,0-0.4,0.1-0.6,0.1c-0.3,0-0.5-0.1-0.7-0.1c-0.2-0.1-0.4-0.3-0.6-0.5c-0.2-0.2-0.3-0.6-0.4-1
				c-0.1-0.4-0.1-0.9-0.1-1.6c0-0.4,0-0.7,0-1.1c0-0.4,0-0.8,0-1.2c0-0.4,0-0.8,0.1-1.2c0-0.4,0.1-0.8,0.1-1.2c-0.3,0-0.6,0-0.9,0
				c-0.3,0-0.5,0.1-0.7,0.1c0,0,0,0,0-0.1c0-0.1,0-0.2,0.1-0.2c0.1-0.1,0.2-0.1,0.3-0.2c0.1-0.1,0.3-0.1,0.5-0.1
				c0.2,0,0.4-0.1,0.7-0.1c0.1-0.8,0.2-1.6,0.3-2.3c0.1-0.7,0.2-1.4,0.3-2c0-0.1,0.1-0.2,0.1-0.3c0.1-0.1,0.1-0.1,0.2-0.2
				c0.1,0,0.1-0.1,0.2-0.1c0.1,0,0.2,0,0.2,0c0.1,0,0.2,0,0.3,0C147.2,40.6,147.3,40.7,147.4,40.7z"/>
			<path class="st0" d="M158.5,50.6c0.2-0.3,0.3-0.7,0.4-1c0.1-0.4,0.1-0.7,0.1-1.1c0-0.4-0.1-0.8-0.2-1.2c-0.1-0.4-0.3-0.8-0.6-1.1
				c-0.3,0-0.5-0.1-0.7-0.1c-0.2,0-0.3,0-0.3-0.1c-0.1,0-0.1-0.1-0.2-0.1c0,0-0.1-0.1-0.1-0.1c0-0.1,0-0.1,0.1-0.2
				c0.1-0.1,0.1-0.1,0.2-0.2c0.1-0.1,0.2-0.1,0.3-0.2c0.1,0,0.2-0.1,0.2-0.1c0.4,0.1,0.7,0.2,1,0.4c0.3,0,0.7,0,1,0
				c0.3,0,0.6,0,0.9,0c0.3,0,0.6,0,0.8-0.1c0.3,0,0.6-0.1,0.9-0.1c0.1,0.2,0.1,0.3,0.1,0.4c0,0.1,0,0.2-0.1,0.3
				c-0.1,0.1-0.2,0.1-0.3,0.2c-0.2,0-0.3,0.1-0.5,0.1c-0.2,0-0.4,0-0.7,0c-0.2,0-0.4,0-0.6,0c-0.2,0-0.4,0-0.7,0
				c0.1,0.2,0.2,0.3,0.3,0.5c0.1,0.2,0.1,0.3,0.2,0.5c0,0.1,0.1,0.3,0.1,0.4c0,0.1,0,0.2,0,0.3c0,0.5-0.1,1-0.3,1.5
				c-0.2,0.5-0.4,1-0.7,1.5c0.3,0.3,0.6,0.5,0.9,0.7c0.3,0.2,0.6,0.4,0.9,0.6c0.3,0.2,0.5,0.3,0.8,0.4c0.2,0.1,0.5,0.1,0.6,0.1
				c0.2,0,0.4,0,0.6,0c0.2,0,0.3-0.1,0.5-0.1l0.2,0.5c-0.1,0.1-0.3,0.1-0.5,0.2c-0.2,0.1-0.4,0.1-0.6,0.2c-0.2,0.1-0.4,0.1-0.6,0.2
				c-0.2,0-0.4,0.1-0.6,0.1c-0.2,0-0.4,0-0.6-0.1c-0.2-0.1-0.5-0.2-0.8-0.3c-0.3-0.1-0.5-0.3-0.8-0.5c-0.3-0.2-0.6-0.4-0.9-0.7
				c-0.2,0.3-0.5,0.5-0.8,0.7c-0.3,0.2-0.6,0.4-0.9,0.5c-0.3,0.2-0.6,0.3-1,0.4c-0.3,0.1-0.7,0.1-1,0.1c-0.5,0-1-0.1-1.5-0.3
				c-0.5-0.2-0.9-0.4-1.2-0.7c-0.3-0.3-0.6-0.7-0.8-1.2c-0.2-0.5-0.3-1-0.3-1.6c0-0.5,0.1-1,0.2-1.4c0.1-0.4,0.3-0.8,0.6-1.1
				c0.2-0.3,0.5-0.6,0.8-0.9c0.3-0.3,0.6-0.5,1-0.7c-0.2-0.5-0.4-1-0.5-1.5c-0.1-0.5-0.2-0.9-0.2-1.4c0-0.5,0.1-0.9,0.3-1.3
				c0.2-0.4,0.4-0.7,0.7-1c0.3-0.3,0.6-0.5,1-0.7c0.4-0.2,0.8-0.3,1.2-0.3c0.3,0,0.6,0,0.9,0.1c0.3,0.1,0.5,0.2,0.7,0.4
				c0.2,0.2,0.3,0.4,0.4,0.6c0.1,0.2,0.1,0.5,0.1,0.8c0,0.3-0.1,0.6-0.2,0.9c-0.1,0.3-0.3,0.7-0.5,1c-0.2,0.4-0.6,0.7-0.9,1.1
				c-0.4,0.4-0.9,0.7-1.4,1c0.2,0.4,0.5,0.9,0.8,1.3c0.3,0.4,0.6,0.9,0.9,1.3c0.3,0.4,0.7,0.8,1,1.2
				C157.8,49.9,158.1,50.2,158.5,50.6z M153.4,46.4c-0.2,0.2-0.4,0.4-0.6,0.6c-0.2,0.2-0.3,0.4-0.4,0.7c-0.1,0.2-0.2,0.5-0.3,0.8
				c-0.1,0.3-0.1,0.6-0.1,0.9c0,0.6,0.1,1.1,0.3,1.5c0.2,0.4,0.4,0.8,0.7,1.1c0.3,0.3,0.6,0.5,1,0.6c0.4,0.1,0.7,0.2,1.1,0.2
				c0.2,0,0.5,0,0.7-0.1c0.2,0,0.4-0.1,0.7-0.2c0.2-0.1,0.4-0.2,0.6-0.3c0.2-0.1,0.4-0.3,0.5-0.4c-0.4-0.4-0.8-0.7-1.2-1.1
				c-0.4-0.4-0.8-0.8-1.1-1.3c-0.4-0.5-0.7-0.9-1-1.4C154,47.4,153.7,46.9,153.4,46.4z M154.4,45.2c0.4-0.2,0.7-0.5,0.9-0.7
				c0.3-0.3,0.5-0.5,0.6-0.8c0.2-0.3,0.3-0.6,0.3-0.8c0.1-0.3,0.1-0.5,0.1-0.8c0-0.2,0-0.4-0.1-0.6c-0.1-0.2-0.1-0.4-0.3-0.5
				c-0.1-0.1-0.2-0.2-0.4-0.3c-0.2-0.1-0.3-0.1-0.5-0.1c-0.3,0-0.5,0.1-0.7,0.2c-0.2,0.1-0.3,0.3-0.4,0.4c-0.1,0.2-0.2,0.4-0.3,0.6
				c0,0.2-0.1,0.5-0.1,0.7c0,0.4,0.1,0.8,0.2,1.3C154,44.3,154.1,44.7,154.4,45.2z"/>
			<path class="st0" d="M170.2,39.6c0.5,0,1,0,1.4,0.1c0.4,0.1,0.8,0.2,1.1,0.3c0.3,0.1,0.6,0.3,0.8,0.4c0.2,0.2,0.3,0.3,0.3,0.4
				c0,0.3,0,0.6,0,1.1c0,0.4,0,1-0.1,1.6l-0.5,0c0-0.1,0-0.1,0-0.2c0,0,0-0.1,0-0.2c0-0.3,0-0.5-0.1-0.8c-0.1-0.2-0.2-0.5-0.3-0.7
				c-0.2-0.2-0.3-0.4-0.6-0.6c-0.2-0.2-0.5-0.3-0.7-0.4c-0.3-0.1-0.5-0.2-0.8-0.3c-0.3-0.1-0.6-0.1-0.9-0.1c-0.5,0-1,0.1-1.4,0.2
				c-0.4,0.2-0.8,0.4-1.2,0.7c-0.3,0.3-0.6,0.6-0.9,1c-0.3,0.4-0.5,0.8-0.6,1.3c-0.2,0.5-0.3,1-0.4,1.5c-0.1,0.5-0.1,1-0.1,1.6
				c0,0.6,0.1,1.2,0.2,1.7c0.1,0.6,0.2,1.1,0.4,1.5c0.2,0.5,0.4,0.9,0.7,1.2c0.3,0.4,0.6,0.7,0.9,0.9c0.3,0.3,0.7,0.4,1.1,0.6
				c0.4,0.1,0.8,0.2,1.2,0.2c0.3,0,0.6,0,0.9-0.1c0.3-0.1,0.6-0.2,1-0.3c0.3-0.1,0.7-0.3,1-0.5c0.3-0.2,0.7-0.5,1-0.8
				c0,0,0.1,0,0.1,0.1c0,0,0.1,0,0.1,0.1c0,0,0.1,0.1,0.1,0.1c0,0,0,0.1,0,0.1c0,0,0,0.1,0,0.1c-0.4,0.4-0.8,0.8-1.2,1.1
				c-0.4,0.3-0.8,0.5-1.2,0.7c-0.4,0.2-0.8,0.3-1.2,0.4c-0.4,0.1-0.8,0.1-1.2,0.1c-0.5,0-1-0.1-1.5-0.2c-0.5-0.1-0.9-0.4-1.3-0.6
				c-0.4-0.3-0.8-0.6-1.1-1c-0.3-0.4-0.6-0.8-0.9-1.3c-0.2-0.5-0.4-1-0.5-1.6c-0.1-0.6-0.2-1.2-0.2-1.8c0-0.6,0.1-1.2,0.2-1.9
				c0.1-0.6,0.3-1.2,0.6-1.8c0.2-0.6,0.6-1.1,0.9-1.6c0.4-0.5,0.8-0.9,1.3-1.3c0.5-0.4,1.1-0.6,1.7-0.9
				C168.8,39.7,169.5,39.6,170.2,39.6z"/>
			<path class="st0" d="M177.2,50.4c0.3-1,0.6-1.8,1-2.5c0.3-0.7,0.7-1.3,1-1.7c0.4-0.4,0.7-0.7,1.1-0.9c0.3-0.2,0.7-0.3,1-0.3
				c0.2,0,0.4,0,0.6,0.1c0.2,0.1,0.4,0.2,0.5,0.4c0.2,0.2,0.3,0.4,0.4,0.7c0.1,0.3,0.1,0.6,0.1,1c0,0.1,0,0.3,0,0.5
				c0,0.2,0,0.4-0.1,0.7c0,0.3,0,0.5-0.1,0.8c0,0.3,0,0.5-0.1,0.8c0,0.3,0,0.5-0.1,0.8c0,0.2,0,0.4,0,0.6c0,0.3,0,0.6,0,0.8
				c0,0.2,0.1,0.3,0.1,0.5c0.1,0.1,0.1,0.2,0.2,0.2c0.1,0,0.2,0.1,0.4,0.1c0.2,0,0.4,0,0.6-0.1c0.2-0.1,0.4-0.1,0.7-0.2l0.1,0.3
				c-0.1,0.1-0.3,0.2-0.5,0.3c-0.2,0.1-0.4,0.2-0.7,0.3c-0.2,0.1-0.5,0.2-0.7,0.2c-0.2,0.1-0.4,0.1-0.6,0.1c-0.2,0-0.4-0.1-0.5-0.2
				c-0.1-0.1-0.2-0.3-0.3-0.5c-0.1-0.2-0.1-0.4-0.1-0.7c0-0.3,0-0.5,0-0.8c0-0.4,0-0.7,0-1.1c0-0.4,0-0.8,0.1-1.1
				c0-0.4,0.1-0.7,0.1-1c0-0.3,0-0.5,0-0.7c0-0.4-0.1-0.8-0.3-1c-0.2-0.2-0.4-0.3-0.7-0.3c-0.2,0-0.5,0.1-0.7,0.3
				c-0.3,0.2-0.5,0.5-0.8,0.8c-0.3,0.3-0.5,0.7-0.7,1.2c-0.2,0.5-0.4,1-0.6,1.5c-0.2,0.5-0.3,1.1-0.5,1.7c-0.1,0.6-0.2,1.2-0.2,1.7
				l-1.3,0.2l-0.1,0c0-0.5,0.1-1,0.1-1.5c0-0.6,0.1-1.2,0.1-1.8c0-0.6,0.1-1.3,0.1-2c0-0.7,0.1-1.4,0.1-2.1c0-0.7,0.1-1.4,0.1-2.1
				c0-0.7,0.1-1.4,0.1-2.1c0-0.7,0.1-1.4,0.1-2.1c0-0.7,0.1-1.3,0.1-1.9c0-0.1,0-0.2,0.1-0.2c0.1-0.1,0.1-0.1,0.2-0.2
				c0.1,0,0.2-0.1,0.3-0.1c0.1,0,0.2,0,0.3,0c0.2,0,0.5,0.1,0.7,0.2c-0.1,0.8-0.2,1.5-0.2,2.2c-0.1,0.7-0.1,1.3-0.2,1.9
				c-0.1,0.6-0.1,1.1-0.2,1.6c0,0.5-0.1,1-0.1,1.4c0,0.5-0.1,0.9-0.1,1.3c0,0.4-0.1,0.9-0.1,1.3c0,0.4-0.1,0.9-0.1,1.4
				C177.2,49.3,177.2,49.8,177.2,50.4L177.2,50.4z"/>
			<path class="st0" d="M187.9,45.2c-0.1,0.4-0.1,0.9-0.2,1.3c0,0.5-0.1,0.9-0.1,1.3c0,0.4-0.1,0.8-0.1,1.2c0,0.4,0,0.7,0,1
				c0,0.4,0,0.8,0,1.1c0,0.3,0,0.5,0.1,0.7c0,0.2,0.1,0.4,0.1,0.5c0,0.1,0.1,0.2,0.2,0.3c0.1,0.1,0.1,0.1,0.2,0.1c0.1,0,0.2,0,0.3,0
				c0.2,0,0.4,0,0.6-0.1c0.2-0.1,0.4-0.1,0.7-0.2l0.1,0.3c-0.1,0.1-0.3,0.2-0.5,0.3c-0.2,0.1-0.4,0.2-0.7,0.3
				c-0.2,0.1-0.5,0.2-0.7,0.2c-0.2,0.1-0.4,0.1-0.6,0.1c-0.1,0-0.2,0-0.3,0c-0.1,0-0.2-0.1-0.2-0.1c-0.1-0.1-0.1-0.2-0.2-0.3
				c-0.1-0.1-0.1-0.3-0.1-0.6c0-0.2-0.1-0.5-0.1-0.9c0-0.4,0-0.8,0-1.3c0-0.3,0-0.6,0-1c0-0.4,0-0.8,0-1.2c0-0.4,0-0.9,0-1.4
				c0-0.5,0-1,0.1-1.5c0-0.1,0-0.2,0.1-0.3c0-0.1,0.1-0.1,0.2-0.2c0.1,0,0.2-0.1,0.2-0.1c0.1,0,0.2,0,0.2,0
				C187.4,45,187.7,45.1,187.9,45.2z M187.4,42.5c-0.1,0-0.3,0-0.4-0.1c-0.1-0.1-0.2-0.1-0.3-0.2c-0.1-0.1-0.1-0.2-0.2-0.3
				c0-0.1-0.1-0.2-0.1-0.4c0-0.2,0-0.3,0.1-0.5c0.1-0.1,0.1-0.3,0.2-0.3c0.1-0.1,0.2-0.2,0.3-0.2c0.1,0,0.2-0.1,0.3-0.1
				c0.1,0,0.3,0,0.4,0.1c0.1,0,0.2,0.1,0.3,0.2c0.1,0.1,0.1,0.2,0.2,0.3c0,0.1,0.1,0.2,0.1,0.4c0,0.1,0,0.3-0.1,0.4
				c0,0.1-0.1,0.3-0.2,0.4c-0.1,0.1-0.2,0.2-0.3,0.3C187.6,42.5,187.5,42.5,187.4,42.5z"/>
			<path class="st0" d="M195.3,47.4c0.1-0.2,0.2-0.4,0.2-0.7c0-0.2,0-0.3-0.1-0.4c-0.1-0.1-0.1-0.3-0.2-0.4
				c-0.1-0.1-0.2-0.2-0.4-0.2c-0.2-0.1-0.3-0.1-0.6-0.1c-0.3,0-0.6,0.1-0.8,0.2c-0.2,0.1-0.5,0.3-0.6,0.4c-0.2,0.2-0.3,0.4-0.5,0.7
				c-0.1,0.2-0.2,0.5-0.3,0.8c-0.1,0.3-0.2,0.6-0.2,0.9c0,0.3-0.1,0.6-0.1,0.9c0,0.5,0.1,1,0.2,1.4c0.1,0.4,0.3,0.8,0.5,1.1
				c0.2,0.3,0.5,0.5,0.8,0.7c0.3,0.2,0.6,0.2,1,0.2c0.4,0,0.7-0.1,1.1-0.3c0.4-0.2,0.7-0.5,1.1-0.9c0,0,0.1,0,0.1,0
				c0,0,0.1,0,0.1,0.1c0,0,0.1,0.1,0.1,0.1c0,0,0,0.1,0,0.1c0,0,0,0,0,0l0,0c-0.4,0.6-0.8,1.1-1.4,1.4c-0.5,0.3-1.1,0.5-1.8,0.5
				c-0.3,0-0.7,0-1-0.1c-0.3-0.1-0.6-0.2-0.8-0.4c-0.2-0.2-0.4-0.4-0.6-0.6c-0.2-0.2-0.3-0.5-0.4-0.8c-0.1-0.3-0.2-0.6-0.3-0.9
				c-0.1-0.3-0.1-0.6-0.1-0.9c0-0.4,0-0.8,0.1-1.2c0.1-0.4,0.2-0.8,0.4-1.2c0.2-0.4,0.4-0.7,0.6-1.1c0.3-0.3,0.5-0.6,0.9-0.9
				c0.3-0.2,0.7-0.4,1-0.6c0.4-0.1,0.8-0.2,1.2-0.2c0.3,0,0.6,0,0.9,0.1c0.3,0.1,0.5,0.2,0.7,0.3c0.2,0.1,0.4,0.3,0.5,0.5
				c0.1,0.2,0.2,0.4,0.2,0.7c0,0.2,0,0.3-0.1,0.4c0,0.1-0.1,0.2-0.2,0.3c-0.1,0.1-0.2,0.2-0.3,0.2c-0.1,0-0.3,0.1-0.4,0.1
				c-0.1,0-0.2,0-0.3,0C195.5,47.6,195.4,47.5,195.3,47.4L195.3,47.4z"/>
			<path class="st0" d="M201,41.5c0,0.2,0,0.4,0,0.6c0,0.3,0,0.6,0,0.9c0,0.4,0,0.8,0,1.3c0,0.5,0,1.1,0,1.7c0.6,0,1.1,0,1.6,0
				c0.5,0,1,0,1.6,0c0.5,0,1,0,1.5,0s1,0,1.6,0c0-0.4,0-0.8,0-1.2c0-0.4,0-0.8,0.1-1.3c0-0.4,0-0.9,0.1-1.4c0-0.5,0.1-1.1,0.1-1.7
				c0-0.1,0-0.2,0.1-0.2c0-0.1,0.1-0.1,0.2-0.2c0.1,0,0.2-0.1,0.3-0.1c0.1,0,0.2,0,0.3,0c0.1,0,0.2,0,0.4,0c0.1,0,0.3,0.1,0.4,0.1
				c-0.1,0.6-0.1,1.3-0.2,1.9c0,0.6-0.1,1.2-0.1,1.7c0,0.6-0.1,1.1-0.1,1.7c0,0.5,0,1.1-0.1,1.7c0,0.6,0,1.1,0,1.7
				c0,0.6,0,1.2,0,1.8c0,0.4,0,0.8,0.1,1.1c0,0.3,0.1,0.5,0.2,0.7c0.1,0.2,0.2,0.3,0.4,0.4c0.2,0.1,0.3,0.1,0.6,0.1
				c0.2,0,0.3,0,0.5,0c0.2,0,0.4-0.1,0.6-0.2L211,53c-0.3,0.1-0.5,0.2-0.8,0.3c-0.2,0.1-0.5,0.2-0.7,0.2c-0.2,0.1-0.4,0.1-0.6,0.1
				c-0.2,0-0.4,0-0.5,0c-0.2,0-0.4,0-0.6-0.1c-0.2-0.1-0.3-0.2-0.4-0.4c-0.1-0.2-0.2-0.4-0.3-0.8c-0.1-0.3-0.1-0.7-0.1-1.2v-1.3
				c0-0.3,0-0.6,0-0.9c0-0.3,0-0.6,0-0.8c0-0.3,0-0.5,0-0.8c0-0.2,0-0.5,0-0.7c-0.5,0-1.1,0-1.6,0c-0.5,0-1,0-1.5,0
				c-0.5,0-1,0-1.6,0c-0.5,0-1.1,0-1.6,0.1l-0.2,6.6l-1.4,0.2l-0.1,0c0-1.1,0.1-2.2,0.1-3.2c0-1,0.1-2,0.1-3c0-1,0-1.9,0.1-2.8
				c0-0.9,0-1.9,0-2.8c0-0.2,0-0.3,0-0.5c0-0.1-0.1-0.2-0.1-0.3c-0.1-0.1-0.2-0.1-0.3-0.2c-0.1,0-0.3-0.1-0.5-0.1
				c-0.3,0-0.6,0-1,0.1l-0.1-0.5c0.6-0.1,1.1-0.3,1.5-0.3c0.4-0.1,0.7-0.1,1-0.1c0.3,0,0.5,0,0.6,0.1c0.2,0.1,0.3,0.2,0.3,0.3
				c0.1,0.1,0.1,0.3,0.1,0.5C201,41,201,41.3,201,41.5z"/>
			<path class="st0" d="M211.4,50.1c0-0.4,0-0.8,0.1-1.2c0.1-0.4,0.2-0.8,0.4-1.2c0.2-0.4,0.4-0.7,0.6-1.1c0.2-0.3,0.5-0.6,0.8-0.9
				c0.3-0.3,0.7-0.5,1-0.6c0.4-0.1,0.8-0.2,1.2-0.2c0.5,0,0.9,0.1,1.3,0.3c0.4,0.2,0.7,0.5,1,0.8c0.3,0.3,0.5,0.7,0.6,1.2
				c0.1,0.4,0.2,0.9,0.2,1.4c0,0.4,0,0.8-0.1,1.2c-0.1,0.4-0.2,0.8-0.4,1.2c-0.2,0.4-0.4,0.7-0.6,1.1c-0.2,0.3-0.5,0.6-0.8,0.9
				c-0.3,0.3-0.7,0.5-1,0.6c-0.4,0.1-0.8,0.2-1.2,0.2c-0.5,0-0.9-0.1-1.3-0.3c-0.4-0.2-0.7-0.5-1-0.8c-0.3-0.3-0.5-0.7-0.6-1.2
				C211.5,51,211.4,50.6,211.4,50.1z M212.8,49.5c0,0.3,0,0.5,0.1,0.8c0,0.3,0.1,0.5,0.2,0.8c0.1,0.3,0.2,0.5,0.3,0.7
				c0.1,0.2,0.3,0.4,0.5,0.6c0.2,0.2,0.4,0.3,0.6,0.4c0.2,0.1,0.5,0.1,0.7,0.1c0.3,0,0.5-0.1,0.8-0.2c0.2-0.1,0.4-0.3,0.6-0.5
				c0.2-0.2,0.3-0.4,0.4-0.7c0.1-0.3,0.2-0.5,0.3-0.8c0.1-0.3,0.1-0.6,0.1-0.8c0-0.3,0-0.5,0-0.8c0-0.3,0-0.5-0.1-0.8
				c0-0.3-0.1-0.5-0.2-0.8c-0.1-0.3-0.2-0.5-0.3-0.7c-0.1-0.2-0.3-0.4-0.5-0.6c-0.2-0.2-0.4-0.3-0.6-0.4c-0.2-0.1-0.5-0.1-0.7-0.1
				c-0.3,0-0.5,0.1-0.8,0.2c-0.2,0.1-0.4,0.3-0.6,0.5c-0.2,0.2-0.3,0.4-0.4,0.7c-0.1,0.3-0.2,0.5-0.2,0.8c-0.1,0.3-0.1,0.6-0.1,0.8
				C212.9,49.1,212.8,49.3,212.8,49.5z"/>
			<path class="st0" d="M223.3,40.7c-0.2,0.7-0.3,1.5-0.4,2.3c-0.1,0.8-0.2,1.6-0.3,2.4c0.2,0,0.4,0,0.5,0c0.2,0,0.3,0,0.5,0
				c0.2,0,0.3,0,0.4,0c0.1,0,0.2,0,0.3,0c0.4,0,0.7,0,0.9-0.1c0,0.1,0,0.1,0,0.2c0,0.1,0,0.1,0,0.2c0,0.2-0.1,0.3-0.2,0.3
				c-0.1,0.1-0.3,0.1-0.6,0.1c-0.3,0-0.5,0-0.9,0c-0.3,0-0.7-0.1-1.1-0.1c0,0.4-0.1,0.8-0.1,1.2c0,0.4-0.1,0.8-0.1,1.1
				c0,0.4,0,0.7,0,1c0,0.3,0,0.6,0,0.8c0,0.4,0,0.8,0.1,1.1c0,0.3,0.1,0.6,0.2,0.8c0.1,0.2,0.3,0.4,0.5,0.5c0.2,0.1,0.4,0.2,0.7,0.2
				c0.2,0,0.4,0,0.7-0.1c0.3-0.1,0.6-0.2,0.9-0.4c0.1,0.1,0.2,0.2,0.2,0.4c-0.2,0.2-0.5,0.3-0.7,0.4c-0.3,0.1-0.5,0.2-0.7,0.3
				c-0.2,0.1-0.5,0.2-0.7,0.2c-0.2,0-0.4,0.1-0.6,0.1c-0.3,0-0.5-0.1-0.7-0.1c-0.2-0.1-0.4-0.3-0.6-0.5c-0.2-0.2-0.3-0.6-0.4-1
				c-0.1-0.4-0.1-0.9-0.1-1.6c0-0.4,0-0.7,0-1.1c0-0.4,0-0.8,0-1.2c0-0.4,0-0.8,0.1-1.2c0-0.4,0.1-0.8,0.1-1.2c-0.3,0-0.6,0-0.9,0
				c-0.3,0-0.5,0.1-0.7,0.1c0,0,0,0,0-0.1c0-0.1,0-0.2,0.1-0.2c0.1-0.1,0.2-0.1,0.3-0.2c0.1-0.1,0.3-0.1,0.5-0.1
				c0.2,0,0.4-0.1,0.7-0.1c0.1-0.8,0.2-1.6,0.3-2.3c0.1-0.7,0.2-1.4,0.3-2c0-0.1,0.1-0.2,0.1-0.3c0.1-0.1,0.1-0.1,0.2-0.2
				c0.1,0,0.1-0.1,0.2-0.1c0.1,0,0.2,0,0.2,0c0.1,0,0.2,0,0.3,0C223.1,40.6,223.2,40.7,223.3,40.7z"/>
			<path class="st0" d="M232.1,51.7C232.2,51.7,232.2,51.7,232.1,51.7c0.1,0.1,0.2,0.1,0.2,0.1c0,0,0.1,0.1,0.1,0.1c0,0,0,0.1,0,0.1
				c0,0,0,0,0,0c-0.2,0.3-0.5,0.6-0.7,0.8c-0.3,0.2-0.5,0.4-0.8,0.6c-0.3,0.2-0.6,0.3-0.8,0.3c-0.3,0.1-0.6,0.1-0.8,0.1
				c-0.5,0-0.9-0.1-1.3-0.3c-0.4-0.2-0.7-0.5-1-0.8c-0.3-0.3-0.5-0.7-0.7-1.2c-0.2-0.4-0.2-0.9-0.2-1.4c0-0.4,0-0.8,0.1-1.3
				c0.1-0.4,0.2-0.8,0.4-1.2c0.2-0.4,0.4-0.7,0.6-1.1c0.3-0.3,0.5-0.6,0.9-0.9c0.3-0.2,0.7-0.4,1.1-0.6c0.4-0.1,0.8-0.2,1.2-0.2
				c0.3,0,0.6,0,0.8,0.1c0.3,0.1,0.5,0.2,0.7,0.3c0.2,0.1,0.4,0.3,0.5,0.5c0.1,0.2,0.2,0.5,0.2,0.7c0,0.4-0.1,0.8-0.4,1.1
				c-0.3,0.3-0.6,0.5-1.1,0.8c-0.5,0.2-1,0.4-1.6,0.5c-0.6,0.1-1.3,0.2-2,0.3v0.1c0,0.5,0.1,1,0.2,1.4c0.1,0.4,0.3,0.8,0.5,1.1
				c0.2,0.3,0.5,0.5,0.8,0.7c0.3,0.2,0.6,0.2,1,0.2c0.4,0,0.7-0.1,1.1-0.3C231.4,52.3,231.8,52.1,232.1,51.7z M231,46.9
				c0-0.2,0-0.3-0.1-0.5c-0.1-0.2-0.1-0.3-0.3-0.4c-0.1-0.1-0.2-0.2-0.4-0.3c-0.1-0.1-0.3-0.1-0.5-0.1c-0.3,0-0.5,0-0.7,0.1
				c-0.2,0.1-0.4,0.2-0.6,0.4c-0.2,0.2-0.3,0.3-0.4,0.5c-0.1,0.2-0.2,0.4-0.3,0.7c-0.1,0.2-0.2,0.5-0.2,0.7
				c-0.1,0.2-0.1,0.5-0.1,0.7c0.6,0,1.1-0.1,1.5-0.2c0.4-0.1,0.8-0.2,1.1-0.4c0.3-0.2,0.5-0.3,0.7-0.5C230.9,47.4,231,47.2,231,46.9
				z"/>
			<path class="st0" d="M236.7,37.7c-0.1,0.7-0.2,1.4-0.2,2.1c-0.1,0.7-0.2,1.4-0.2,2.1c-0.1,0.7-0.1,1.4-0.2,2.2
				c-0.1,0.7-0.1,1.4-0.2,2.1c0,0.7-0.1,1.4-0.1,2.1c0,0.7,0,1.3,0,1.9c0,0.4,0,0.7,0,1c0,0.3,0,0.5,0,0.7c0,0.2,0.1,0.3,0.1,0.5
				c0,0.1,0.1,0.2,0.1,0.3c0.1,0.1,0.1,0.1,0.2,0.1c0.1,0,0.2,0,0.3,0c0.2,0,0.4,0,0.6-0.1c0.2-0.1,0.4-0.1,0.7-0.2l0.1,0.3
				c-0.1,0.1-0.3,0.2-0.5,0.3c-0.2,0.1-0.4,0.2-0.7,0.3c-0.2,0.1-0.5,0.2-0.7,0.2c-0.2,0.1-0.4,0.1-0.6,0.1c-0.2,0-0.4-0.1-0.5-0.2
				c-0.1-0.1-0.2-0.3-0.3-0.5c-0.1-0.2-0.1-0.6-0.1-1c0-0.4,0-0.9,0-1.4c0-0.2,0-0.5,0-0.9c0-0.4,0-0.8,0.1-1.3c0-0.5,0-1.1,0.1-1.7
				c0-0.6,0.1-1.2,0.1-1.9c0-0.6,0.1-1.3,0.1-1.9c0-0.7,0.1-1.3,0.1-1.9c0-0.6,0.1-1.2,0.1-1.7c0-0.5,0.1-1,0.1-1.4
				c0-0.1,0-0.2,0.1-0.2c0-0.1,0.1-0.1,0.2-0.2c0.1,0,0.2-0.1,0.3-0.1c0.1,0,0.2,0,0.3,0C236.2,37.5,236.4,37.5,236.7,37.7z"/>
		</g>
		<g>
			<path class="st0" d="M159.5,32.2c-0.8,0.4-1.7,0.8-2.7,1.1c-1,0.3-2.2,0.5-3.3,0.5c-2.2,0-3.7-0.4-4.7-1.2
				c-1-0.8-1.7-1.9-2.1-3.3h-0.2c-0.6,0.7-1.2,1.3-1.7,1.9c-0.5,0.5-1.1,0.9-1.8,1.3c-0.8,0.5-1.6,0.8-2.4,1.1
				c-0.8,0.2-1.8,0.4-3.2,0.4c-2,0-3.8-0.7-5.2-2.2c-1.4-1.5-2.2-3.4-2.2-5.8c0-1.4,0.2-2.6,0.5-3.5c0.3-1,0.8-1.8,1.3-2.6
				c0.5-0.7,1.1-1.3,1.8-1.7c0.7-0.4,1.4-0.9,2.3-1.2c1.6-0.7,3.5-1.4,5.7-2.2c2.2-0.8,3.8-1.4,4.8-2V9.6c0-0.5,0-1.2-0.1-2.1
				c-0.1-0.9-0.2-1.6-0.4-2.2c-0.2-0.7-0.6-1.3-1.2-1.7c-0.5-0.5-1.2-0.7-2.1-0.7c-0.8,0-1.4,0.1-1.9,0.4c-0.5,0.3-0.9,0.5-1.2,0.8
				c0.1,0.4,0.2,1.1,0.4,2c0.2,0.9,0.4,1.7,0.4,2.5c0,0.4-0.1,0.8-0.2,1.4c-0.2,0.5-0.4,1-0.7,1.3c-0.4,0.4-0.9,0.8-1.4,1
				c-0.5,0.2-1.3,0.4-2.3,0.4c-1.5,0-2.6-0.4-3.3-1.3c-0.8-0.9-1.1-2-1.1-3.4c0-1.2,0.4-2.3,1.2-3.2c0.8-0.9,1.7-1.7,2.8-2.3
				c1.1-0.6,2.4-1.1,3.8-1.5c1.4-0.4,2.8-0.5,4-0.5c1.7,0,3.3,0.1,4.7,0.4c1.4,0.2,2.7,0.8,3.8,1.5c1.1,0.7,1.9,1.8,2.6,3.2
				c0.6,1.4,1,3.3,1,5.5c0,2.4,0,5.3-0.1,8.6c-0.1,3.3-0.1,5.5-0.1,6.5c0,1,0.1,1.7,0.4,2.3c0.2,0.6,0.6,1,1.1,1.2
				c0.3,0.2,0.8,0.3,1.4,0.3c0.6,0,1.2,0,1.7,0V32.2z M146.5,15.6c-1,0.4-2,0.9-2.9,1.4c-1,0.5-1.8,1.1-2.4,1.7
				c-0.7,0.6-1.2,1.4-1.5,2.3c-0.4,0.9-0.6,2-0.6,3.3c0,1.7,0.3,2.9,0.9,3.6c0.6,0.7,1.4,1.1,2.3,1.1c1,0,1.8-0.2,2.4-0.7
				c0.6-0.5,1.2-1.1,1.6-1.8L146.5,15.6z"/>
			<path class="st0" d="M215.3,32.2l-12.5,0.9l-0.4-0.4v-4.2h-0.2c-0.6,0.7-1.2,1.3-1.7,1.9c-0.6,0.6-1.2,1.2-2,1.7
				c-0.9,0.6-1.7,1-2.5,1.3c-0.8,0.3-2,0.4-3.5,0.4c-2.6,0-4.7-1-6.1-2.9c-1.4-1.9-2.1-4.7-2.1-8.2V8.4c0-0.8-0.1-1.5-0.4-2
				c-0.3-0.5-0.6-1-1-1.4c-0.3-0.3-0.8-0.5-1.4-0.7C180.9,4.1,180.4,4,180,4V1.7l12.7-0.8l0.3,0.5v21.2c0,2.2,0.3,3.8,1,4.9
				c0.7,1,1.6,1.6,2.9,1.6c1.2,0,2.4-0.4,3.4-1.2c1-0.8,1.7-1.6,2.2-2.5V8.1c0-0.7-0.1-1.4-0.3-2c-0.2-0.6-0.6-1-1-1.4
				c-0.3-0.3-0.8-0.4-1.4-0.5c-0.6-0.1-1.2-0.1-1.8-0.2V1.7l12.8-0.8l0.4,0.5V26c0,0.7,0.1,1.4,0.4,1.9c0.2,0.5,0.6,1,1.1,1.3
				c0.3,0.3,0.8,0.4,1.3,0.5c0.5,0.1,1.1,0.2,1.6,0.2V32.2z"/>
		</g>
		<g>
			<path class="st0" d="M236.2,9.1c-1.5-1.3-3.5-2.1-5.5-2.1c-1.5,0-3.6,0.9-3.6,2.7c0,1.9,2.3,2.6,3.7,3.1l2.1,0.6
				c4.5,1.3,7.9,3.6,7.9,8.8c0,3.2-0.8,6.5-3.3,8.7c-2.5,2.1-5.9,3-9.1,3c-4.1,0-8-1.4-11.3-3.7l3.6-6.7c2.1,1.8,4.6,3.3,7.4,3.3
				c2,0,4.1-1,4.1-3.2c0-2.3-3.3-3.2-5.1-3.7c-5.2-1.5-8.7-2.9-8.7-9.1C218.4,4.3,223,0,229.5,0c3.3,0,7.2,1,10.1,2.6L236.2,9.1z"/>
		</g>
		<g>
			<path class="st0" d="M122.3,9.1c-1.5-1.3-3.5-2.1-5.5-2.1c-1.5,0-3.6,0.9-3.6,2.7c0,1.9,2.3,2.6,3.7,3.1l2.1,0.6
				c4.5,1.3,7.9,3.6,7.9,8.8c0,3.2-0.8,6.5-3.3,8.7c-2.5,2.1-5.9,3-9.1,3c-4,0-8-1.4-11.3-3.7l3.6-6.7c2.1,1.8,4.6,3.3,7.4,3.3
				c2,0,4.1-1,4.1-3.2c0-2.3-3.3-3.2-5.1-3.7c-5.2-1.5-8.7-2.9-8.7-9.1c0-6.5,4.6-10.8,11.1-10.8c3.2,0,7.2,1,10.1,2.6L122.3,9.1z"
				/>
			<path class="st0" d="M171.6,25.9h10V33h-18.4V0.9h8.4V25.9z"/>
		</g>
		<polygon class="st0" points="192.4,59.9 193.4,62.5 196.1,62.6 194,64.3 194.7,67 192.4,65.5 190.1,67 190.8,64.3 188.7,62.6 
			191.4,62.5 		"/>
		<polygon class="st0" points="233.4,59.9 234.4,62.5 237.1,62.6 235,64.3 235.7,67 233.4,65.5 231.1,67 231.8,64.3 229.7,62.6 
			232.4,62.5 		"/>
		<g>
			<g>
				<polygon class="st0" points="206.4,60 207.4,62.5 210.1,62.7 208,64.3 208.7,67 206.4,65.5 204.1,67 204.9,64.3 202.7,62.7 
					205.5,62.5 				"/>
				<polygon class="st0" points="219.9,60 220.9,62.5 223.6,62.7 221.5,64.3 222.2,67 219.9,65.5 217.7,67 218.4,64.3 216.3,62.7 
					219,62.5 				"/>
			</g>
		</g>
	</g>
</g>
<g id="Livello_2">
</g>
</svg>
